<svg width="386" height="83" viewBox="0 0 386 83" fill="none" xmlns="http://www.w3.org/2000/svg">
<path d="M66.656 23.96C66.7413 24.6427 66.656 25.3253 66.4 26.008C66.2293 26.6053 66.016 27.2027 65.76 27.8C65.248 27.8 64.8213 27.8427 64.48 27.928C64.1387 28.0987 64.0107 28.3973 64.096 28.824C64.2667 29.2507 64.224 29.6347 63.968 29.976C63.7973 30.3173 63.6267 30.7013 63.456 31.128C63.2853 31.5547 63.1147 31.896 62.944 32.152C62.8587 32.7493 62.9867 33.2187 63.328 33.56C63.7547 33.9013 63.968 34.328 63.968 34.84C64.0533 35.1813 64.0107 35.5227 63.84 35.864C63.7547 36.12 63.6267 36.4187 63.456 36.76C63.2853 37.1013 63.072 37.4 62.816 37.656C62.6453 37.912 62.4747 38.2107 62.304 38.552C62.048 38.9787 61.7493 39.448 61.408 39.96C61.152 40.472 60.896 40.9413 60.64 41.368C60.2987 41.7093 59.872 42.0507 59.36 42.392C58.9333 42.7333 58.5067 43.0747 58.08 43.416C57.9093 43.672 57.7387 43.9707 57.568 44.312C57.3973 44.568 57.2267 44.9093 57.056 45.336C55.6907 46.4453 54.3253 47.5547 52.96 48.664C51.5947 49.7733 50.1867 50.7973 48.736 51.736C47.712 52.0773 46.6453 52.376 45.536 52.632C44.4267 52.8027 43.3173 52.9733 42.208 53.144C41.3547 53.2293 40.5013 53.3573 39.648 53.528C38.7947 53.6987 37.8987 53.912 36.96 54.168C36.448 54.2533 35.936 54.3387 35.424 54.424C34.912 54.424 34.3147 54.424 33.632 54.424C32.5227 54.5093 31.4133 54.5947 30.304 54.68C29.28 54.68 28.2987 54.68 27.36 54.68C26.336 55.1067 25.7813 55.6187 25.696 56.216C25.6107 56.728 25.4827 57.24 25.312 57.752C25.1413 58.264 24.9707 58.776 24.8 59.288C24.8 60.3973 24.7147 61.5493 24.544 62.744C24.4587 63.9387 24.4587 65.0907 24.544 66.2C24.544 66.6267 24.5013 66.9253 24.416 67.096C24.416 67.608 24.3733 68.1627 24.288 68.76C24.288 69.272 24.288 69.784 24.288 70.296C24.288 70.808 24.288 71.32 24.288 71.832C24.3733 72.2587 24.4587 72.6853 24.544 73.112C24.8 74.7333 24.5867 76.3547 23.904 77.976C23.904 78.4027 23.8187 78.7867 23.648 79.128C23.392 79.8107 22.9227 80.0667 22.24 79.896C20.96 79.4693 19.68 79.2133 18.4 79.128C17.2053 79.128 15.9253 79.2133 14.56 79.384H12.896C11.7013 79.9813 10.464 80.3653 9.184 80.536C7.904 80.7067 6.58133 80.8347 5.216 80.92C4.448 80.92 3.97867 80.664 3.808 80.152C3.808 80.152 3.76533 80.1093 3.68 80.024C3.68 80.024 3.68 79.9813 3.68 79.896C3.50933 77.7627 3.296 75.5867 3.04 73.368C2.784 71.1493 2.69867 68.9733 2.784 66.84C2.784 66.4133 2.74133 65.9867 2.656 65.56C2.656 65.1333 2.61333 64.7493 2.528 64.408C2.35733 63.4693 2.22933 62.5307 2.144 61.592C2.05867 60.568 1.97333 59.5867 1.888 58.648C1.888 58.3067 1.888 57.9653 1.888 57.624C1.888 57.2827 1.80267 56.9413 1.632 56.6C1.29067 55.9173 1.12 55.192 1.12 54.424C1.20533 53.656 1.248 52.9733 1.248 52.376C1.504 51.7787 1.67467 51.3093 1.76 50.968C1.84533 50.5413 1.93067 50.072 2.016 49.56C1.76 49.2187 1.632 48.92 1.632 48.664C1.71733 48.3227 1.67467 48.024 1.504 47.768C1.504 47.5973 1.46133 47.4693 1.376 47.384C1.29067 47.2133 1.248 47.0853 1.248 47C1.16267 44.8667 1.07733 42.4347 0.992 39.704C0.992 36.9733 0.992 34.4133 0.992 32.024C1.07733 29.6347 1.16267 27.928 1.248 26.904C1.41867 26.5627 1.58933 26.264 1.76 26.008C2.016 25.752 2.18667 25.496 2.272 25.24C2.272 24.984 2.18667 24.8133 2.016 24.728C1.84533 24.5573 1.67467 24.4293 1.504 24.344C1.67467 23.576 1.84533 22.808 2.016 22.04C2.272 21.272 2.48533 20.504 2.656 19.736C2.57067 19.3093 2.48533 18.9253 2.4 18.584C2.31467 18.2427 2.18667 17.9013 2.016 17.56C2.272 16.9627 2.528 16.28 2.784 15.512C2.69867 14.8293 2.61333 14.0613 2.528 13.208C2.528 12.3547 2.44267 11.4587 2.272 10.52C2.44267 10.264 2.57067 9.92266 2.656 9.49599C2.74133 8.984 2.86933 8.51466 3.04 8.088C3.21067 7.66133 3.21067 7.23466 3.04 6.808C2.95467 6.38133 3.04 5.99733 3.296 5.656C3.808 5.48533 4.23467 5.44266 4.576 5.528C4.74667 5.61333 4.96 5.74133 5.216 5.91199C5.472 5.99733 5.68533 6.08266 5.856 6.168H6.752C7.776 5.82667 8.8 5.528 9.824 5.272C10.9333 4.93066 11.9573 4.54666 12.896 4.12C13.4933 3.77866 14.176 3.69333 14.944 3.864C15.456 3.94933 15.9253 4.03466 16.352 4.12C16.864 4.12 17.3333 4.03466 17.76 3.864C18.3573 3.77867 18.912 3.736 19.424 3.736C20.0213 3.65066 20.6187 3.60799 21.216 3.60799C22.8373 3.60799 24.4587 3.48 26.08 3.224C27.7013 2.968 29.3227 2.66933 30.944 2.328C31.6267 2.07199 32.352 1.98666 33.12 2.072C33.888 2.15733 34.6133 2.15733 35.296 2.072C35.8933 2.24266 36.4907 2.456 37.088 2.712C37.6853 2.88266 38.2827 3.05333 38.88 3.224C39.4773 3.39466 40.0747 3.56533 40.672 3.736C41.2693 3.82133 41.952 3.94933 42.72 4.12C44 3.77866 45.3653 3.65066 46.816 3.736C48.2667 3.736 49.6747 3.77867 51.04 3.864C51.808 3.94933 52.5333 4.12 53.216 4.376C53.984 4.632 54.6667 4.97333 55.264 5.39999C56.1173 5.74133 57.056 6.296 58.08 7.064C58.5067 7.40533 58.8907 7.78933 59.232 8.216C59.6587 8.55733 60.0427 8.94133 60.384 9.368C60.5547 9.45333 60.6827 9.624 60.768 9.88C60.8533 10.0507 60.9387 10.2213 61.024 10.392C61.1947 10.9893 61.4933 11.4587 61.92 11.8C62.3467 12.1413 62.7307 12.5253 63.072 12.952C64.608 15.256 65.376 17.9013 65.376 20.888C65.5467 21.4 65.76 21.9547 66.016 22.552C66.272 23.064 66.4853 23.5333 66.656 23.96ZM46.048 25.752C45.9627 25.24 45.792 24.728 45.536 24.216C45.3653 23.704 45.1947 23.192 45.024 22.68C44.9387 22.424 44.8107 22.2107 44.64 22.04C44.5547 21.8693 44.4693 21.7413 44.384 21.656C44.2133 21.2293 43.872 21.1013 43.36 21.272C43.1893 21.4427 43.0187 21.5707 42.848 21.656C42.6773 21.7413 42.5067 21.8693 42.336 22.04C41.9093 22.1253 41.4827 22.2107 41.056 22.296C40.7147 22.296 40.3307 22.3387 39.904 22.424H38.368C38.112 22.2533 37.8133 22.0827 37.472 21.912C37.216 21.656 36.8747 21.4 36.448 21.144C35.8507 21.0587 35.168 21.016 34.4 21.016C33.7173 20.9307 33.0347 20.9307 32.352 21.016C30.7307 21.3573 29.4507 21.9973 28.512 22.936C28 22.7653 27.5733 22.68 27.232 22.68C26.976 22.5093 26.72 22.4667 26.464 22.552C26.208 22.6373 25.952 22.68 25.696 22.68C25.184 22.936 24.7147 23.2347 24.288 23.576C23.8613 23.9173 23.52 24.3867 23.264 24.984C23.1787 25.3253 23.0507 25.7093 22.88 26.136C22.7947 26.4773 22.752 26.8613 22.752 27.288C22.6667 28.1413 22.5813 29.0373 22.496 29.976C22.496 30.8293 22.4533 31.7253 22.368 32.664C22.368 33.176 22.3253 33.7307 22.24 34.328C22.24 34.84 22.2827 35.352 22.368 35.864C22.368 35.9493 22.4107 36.12 22.496 36.376C22.5813 36.632 22.6667 36.8453 22.752 37.016C23.9467 36.8453 25.056 36.76 26.08 36.76C27.104 36.6747 28.0853 36.7173 29.024 36.888C29.9627 37.144 30.9013 37.3147 31.84 37.4C32.864 37.4853 33.8027 37.656 34.656 37.912C35.0827 37.9973 35.5947 37.9547 36.192 37.784C36.704 37.3573 37.1733 36.9307 37.6 36.504C38.112 36.0773 38.624 35.6507 39.136 35.224C39.5627 35.1387 39.9467 35.096 40.288 35.096C40.7147 35.0107 41.0987 34.9253 41.44 34.84C41.952 34.4133 42.464 33.9867 42.976 33.56C43.488 33.048 43.9573 32.5787 44.384 32.152C44.5547 31.5547 44.6827 31 44.768 30.488C44.9387 29.976 45.0667 29.4213 45.152 28.824C45.3227 28.312 45.4933 27.8427 45.664 27.416C45.92 26.904 46.048 26.3493 46.048 25.752ZM128.326 17.432C127.814 17.8587 127.217 18.072 126.534 18.072C125.851 18.072 125.169 18.072 124.486 18.072C123.889 18.072 123.377 18.2 122.95 18.456L120.774 18.072C120.433 18.1573 120.134 18.2427 119.878 18.328C119.622 18.328 119.281 18.3707 118.854 18.456C118.598 18.456 118.129 18.3707 117.446 18.2C116.422 18.0293 115.526 18.072 114.758 18.328C113.734 18.6693 112.582 18.7973 111.302 18.712C110.534 18.5413 109.723 18.584 108.87 18.84C108.102 19.0107 107.377 19.1813 106.694 19.352C106.353 19.2667 106.011 19.224 105.67 19.224C105.414 19.1387 105.201 19.0533 105.03 18.968C104.518 19.0533 104.006 19.224 103.494 19.48C103.067 19.736 102.598 20.0347 102.086 20.376C101.83 20.7173 101.574 21.144 101.318 21.656C101.147 22.0827 100.891 22.5093 100.55 22.936C100.465 23.96 100.422 25.0267 100.422 26.136C100.422 27.16 100.379 28.1413 100.294 29.08C100.209 29.7627 99.9527 30.3173 99.526 30.744C99.1847 31.0853 99.014 31.512 99.014 32.024C99.27 32.7067 99.7393 33.0907 100.422 33.176C100.934 33.3467 101.489 33.4747 102.086 33.56C102.683 33.56 103.281 33.6027 103.878 33.688C104.561 33.432 105.243 33.176 105.926 32.92C106.609 32.664 107.249 32.408 107.846 32.152C108.785 32.152 109.595 32.152 110.278 32.152C110.961 32.152 111.643 32.1093 112.326 32.024C112.582 32.024 112.838 32.024 113.094 32.024C113.35 31.9387 113.606 31.8533 113.862 31.768C115.057 31.256 116.251 31 117.446 31C118.641 31 119.835 31.0853 121.03 31.256C121.883 31.512 122.438 32.152 122.694 33.176C122.694 33.3467 122.694 33.56 122.694 33.816C122.779 33.9867 122.865 34.2 122.95 34.456C122.865 34.712 122.779 35.0107 122.694 35.352C122.609 35.6933 122.566 36.0773 122.566 36.504C122.651 37.8693 122.609 39.2347 122.438 40.6C122.353 41.9653 122.353 43.3733 122.438 44.824C122.523 45.4213 122.438 46.0187 122.182 46.616C122.011 47.2133 121.798 47.7253 121.542 48.152L121.158 48.408C120.646 48.4933 120.177 48.4933 119.75 48.408C119.409 48.2373 119.025 48.152 118.598 48.152C118.086 48.152 117.659 48.28 117.318 48.536C116.977 48.792 116.593 49.0053 116.166 49.176C115.569 49.2613 114.929 49.304 114.246 49.304C113.649 49.304 113.009 49.2613 112.326 49.176C111.985 49.0053 111.601 49.0053 111.174 49.176C110.833 49.3467 110.491 49.5173 110.15 49.688C109.382 49.6027 108.614 49.5173 107.846 49.432C107.163 49.2613 106.481 49.0053 105.798 48.664C105.286 48.664 104.774 48.664 104.262 48.664C103.75 48.664 103.195 48.7067 102.598 48.792C101.489 48.8773 100.337 48.8773 99.142 48.792C98.2033 48.6213 97.35 48.8773 96.582 49.56C96.4113 49.6453 96.2407 49.9013 96.07 50.328C95.8993 50.6693 95.8567 50.968 95.942 51.224C96.2833 51.9067 96.454 52.632 96.454 53.4C96.5393 54.168 96.582 54.8933 96.582 55.576C96.6673 55.832 96.7527 56.0453 96.838 56.216C96.9233 56.3867 97.0087 56.5573 97.094 56.728C97.0087 56.8987 96.8807 57.0693 96.71 57.24C96.6247 57.4107 96.5393 57.5813 96.454 57.752C96.1127 58.6053 96.326 59.1173 97.094 59.288C98.118 59.544 99.142 59.8 100.166 60.056C101.275 60.312 102.385 60.5253 103.494 60.696C103.75 60.6107 104.049 60.5253 104.39 60.44C104.731 60.3547 105.03 60.312 105.286 60.312C106.481 60.312 107.675 60.2267 108.87 60.056C110.15 59.8 111.387 59.672 112.582 59.672C112.838 59.672 113.137 59.672 113.478 59.672C113.819 59.5867 114.161 59.5867 114.502 59.672C115.185 59.928 115.91 60.0987 116.678 60.184C117.446 60.2693 118.214 60.312 118.982 60.312C119.494 60.312 119.963 60.3547 120.39 60.44C120.902 60.44 121.414 60.4827 121.926 60.568C122.609 60.7387 122.95 61.08 122.95 61.592C122.865 62.0187 122.694 62.488 122.438 63C122.267 63.4267 122.097 63.8107 121.926 64.152C121.841 64.7493 121.926 65.2187 122.182 65.56C122.438 65.9013 122.609 66.2427 122.694 66.584C122.609 67.4373 122.481 68.248 122.31 69.016C122.225 69.784 121.969 70.4667 121.542 71.064C121.542 71.576 121.67 71.96 121.926 72.216C122.182 72.472 122.353 72.7707 122.438 73.112C122.267 73.2827 122.097 73.5387 121.926 73.88C121.841 74.136 121.713 74.4347 121.542 74.776C121.713 75.4587 121.841 76.184 121.926 76.952C122.097 77.72 121.926 78.4453 121.414 79.128C121.158 79.2133 120.859 79.3413 120.518 79.512C120.262 79.768 119.963 79.8533 119.622 79.768C118.769 79.5973 117.915 79.5973 117.062 79.768C116.294 79.9387 115.526 80.0667 114.758 80.152C114.161 80.2373 113.606 80.408 113.094 80.664C112.582 80.92 112.07 81.1333 111.558 81.304C110.705 81.4747 109.851 81.6027 108.998 81.688C108.145 81.7733 107.249 81.9013 106.31 82.072L104.518 81.688C103.75 81.7733 102.854 81.9013 101.83 82.072L98.374 81.304C98.0327 81.048 97.6913 80.7493 97.35 80.408C97.094 80.152 96.7527 79.9387 96.326 79.768C96.2407 79.6827 96.07 79.64 95.814 79.64C95.6433 79.7253 95.558 79.8107 95.558 79.896C95.558 80.7493 95.0887 81.304 94.15 81.56C93.7233 81.3893 93.254 81.2613 92.742 81.176C92.23 81.0907 91.7607 81.0053 91.334 80.92C90.9073 80.8347 90.438 80.792 89.926 80.792C89.414 80.8773 88.9447 80.92 88.518 80.92C87.494 80.92 86.47 80.792 85.446 80.536C84.5073 80.28 83.526 79.7253 82.502 78.872C82.4167 78.616 82.2887 78.36 82.118 78.104C81.9473 77.848 81.7767 77.5493 81.606 77.208C81.2647 77.0373 80.9233 76.824 80.582 76.568C80.326 76.312 80.0273 76.0987 79.686 75.928L78.278 75.16C77.9367 74.648 77.766 74.1787 77.766 73.752C77.766 73.24 77.7233 72.7707 77.638 72.344C77.5527 71.9173 77.4673 71.4907 77.382 71.064C77.382 70.552 77.3393 70.04 77.254 69.528C77.4247 68.504 77.51 67.48 77.51 66.456C77.5953 65.432 77.5953 64.3653 77.51 63.256C77.4247 62.3173 77.4247 61.3787 77.51 60.44C77.6807 59.416 77.9367 58.4347 78.278 57.496C78.1927 57.1547 78.0647 56.856 77.894 56.6C77.8087 56.344 77.766 56.0453 77.766 55.704C77.766 55.2773 77.8513 54.8507 78.022 54.424C78.1927 53.9973 78.1927 53.5707 78.022 53.144C78.022 52.9733 78.0647 52.8453 78.15 52.76C78.3207 52.6747 78.4487 52.5893 78.534 52.504C78.79 51.9067 78.7047 51.5653 78.278 51.48C77.4247 51.224 76.998 50.7973 76.998 50.2C77.1687 49.688 77.2113 49.176 77.126 48.664C77.0407 48.152 76.998 47.5973 76.998 47C76.998 46.5733 77.0407 46.1467 77.126 45.72C77.2113 45.2933 77.1687 44.8667 76.998 44.44C76.998 44.3547 76.9553 44.2267 76.87 44.056C76.87 43.8853 76.9127 43.7573 76.998 43.672C77.4247 42.7333 77.5527 41.8373 77.382 40.984C77.2967 40.1307 77.126 39.2773 76.87 38.424C77.2113 37.656 77.4247 36.9307 77.51 36.248C77.5953 35.48 77.638 34.712 77.638 33.944V30.488C77.7233 30.232 77.766 29.976 77.766 29.72C77.766 29.3787 77.8087 29.1227 77.894 28.952C78.5767 27.0747 78.534 25.112 77.766 23.064C77.6807 22.8933 77.638 22.6373 77.638 22.296C77.8087 21.784 77.9793 21.3147 78.15 20.888C78.406 20.376 78.5767 19.864 78.662 19.352C78.8327 18.6693 79.0033 17.944 79.174 17.176C79.43 16.408 79.6007 15.6827 79.686 15V14.104C79.6007 13.6773 79.558 13.2507 79.558 12.824C79.6433 12.312 79.6433 11.8427 79.558 11.416C79.4727 10.9893 79.43 10.5627 79.43 10.136C79.5153 9.70933 79.558 9.32533 79.558 8.98399C79.558 8.64266 79.5153 8.38667 79.43 8.216C79.43 7.95999 79.3873 7.70399 79.302 7.448C79.4727 6.85066 79.814 6.38133 80.326 6.03999C80.838 5.69866 81.1367 5.272 81.222 4.75999C82.246 4.07733 83.27 3.65067 84.294 3.48C85.4033 3.22399 86.4273 2.83999 87.366 2.328C88.3047 1.816 89.286 1.51733 90.31 1.432C91.334 1.34666 92.3153 1.13333 93.254 0.792C93.8513 0.962664 94.406 1.13333 94.918 1.30399C95.5153 1.47466 96.1127 1.64533 96.71 1.81599C97.0513 1.81599 97.3927 1.81599 97.734 1.81599C98.1607 1.73066 98.5447 1.64533 98.886 1.56C99.4833 1.64533 100.038 1.77333 100.55 1.94399C101.062 2.11466 101.617 2.15733 102.214 2.072C103.153 1.816 104.049 1.816 104.902 2.072C105.329 2.072 105.713 2.11466 106.054 2.2C106.395 2.2 106.737 2.24266 107.078 2.328C108.358 1.38933 109.723 1.13333 111.174 1.56C111.857 1.81599 112.539 1.90133 113.222 1.81599C113.905 1.73066 114.587 1.816 115.27 2.072C115.953 2.24266 116.593 2.328 117.19 2.328C117.873 2.24266 118.513 2.2 119.11 2.2C119.878 2.02933 120.646 2.02933 121.414 2.2C122.097 2.37066 122.822 2.49866 123.59 2.584C124.443 2.66933 125.211 2.712 125.894 2.712C126.321 2.712 126.918 3.01066 127.686 3.60799C128.881 8.30133 129.094 12.9093 128.326 17.432ZM198.768 4.632C198.597 5.656 198.469 6.68 198.384 7.70399C198.384 8.64266 198.384 9.624 198.384 10.648C198.384 11.8427 198.341 12.9947 198.256 14.104C198.256 15.2133 198.171 16.3653 198 17.56C197.915 17.7307 197.872 17.9867 197.872 18.328C197.957 19.1813 198.085 20.0347 198.256 20.888C198.512 21.656 198.555 22.3813 198.384 23.064C198.213 23.4907 198.171 23.9173 198.256 24.344C198.341 24.7707 198.299 25.1973 198.128 25.624C198.043 25.7947 197.957 25.9653 197.872 26.136C197.787 26.3067 197.701 26.4773 197.616 26.648C197.189 26.7333 196.763 26.8187 196.336 26.904C195.995 26.904 195.611 26.904 195.184 26.904C195.013 26.9893 194.757 27.16 194.416 27.416C194.16 27.5867 193.904 27.7573 193.648 27.928C193.307 27.7573 193.008 27.5867 192.752 27.416C192.581 27.2453 192.368 27.1173 192.112 27.032C191.941 27.032 191.728 27.032 191.472 27.032C191.216 26.9467 191.003 26.9467 190.832 27.032C190.235 27.288 189.424 27.3733 188.4 27.288C187.461 27.1173 186.651 27.032 185.968 27.032C185.115 27.032 184.304 27.16 183.536 27.416C182.853 27.5867 182.128 27.8427 181.36 28.184C180.763 28.5253 180.123 28.7387 179.44 28.824C178.843 28.824 178.203 28.952 177.52 29.208C177.093 29.8053 176.923 30.36 177.008 30.872C177.179 31.5547 177.307 32.3227 177.392 33.176C177.563 33.944 177.477 34.7547 177.136 35.608C177.136 35.9493 177.179 36.1627 177.264 36.248C177.605 37.1013 177.776 37.9547 177.776 38.808C177.776 39.6613 177.691 40.5573 177.52 41.496C177.435 42.3493 177.392 43.2027 177.392 44.056C177.392 44.824 177.307 45.6773 177.136 46.616C176.965 47.5547 177.008 48.408 177.264 49.176C177.349 49.688 177.392 50.2 177.392 50.712C177.392 51.224 177.392 51.6933 177.392 52.12C177.307 52.7173 177.264 52.888 177.264 52.632C177.264 52.2907 177.264 52.12 177.264 52.12V52.504C177.264 52.5893 177.221 52.6747 177.136 52.76C177.136 52.76 177.136 52.8027 177.136 52.888C177.221 54.3387 177.221 55.448 177.136 56.216C177.136 56.8987 177.093 57.5387 177.008 58.136C176.923 58.648 176.752 59.4587 176.496 60.568V61.208C176.837 62.5733 177.008 63.9813 177.008 65.432C177.008 66.7973 176.965 68.1627 176.88 69.528C176.88 70.4667 176.88 71.4053 176.88 72.344C176.965 73.2827 177.179 74.264 177.52 75.288C177.435 75.8 177.307 76.3973 177.136 77.08C176.965 77.6773 176.752 78.2747 176.496 78.872C176.411 79.2133 176.24 79.512 175.984 79.768C175.813 80.024 175.515 80.3227 175.088 80.664C173.04 80.4933 171.12 80.664 169.328 81.176C168.389 81.5173 167.408 81.3893 166.384 80.792C166.213 80.6213 166.128 80.536 166.128 80.536C164.848 79.768 163.611 79.64 162.416 80.152C161.904 80.408 161.392 80.4933 160.88 80.408C160.368 80.3227 159.899 80.28 159.472 80.28C158.875 80.28 158.363 80.4933 157.936 80.92C157.509 81.3467 156.955 81.3893 156.272 81.048C156.187 80.3653 156.229 79.7253 156.4 79.128C156.656 78.5307 156.827 77.848 156.912 77.08C156.827 76.4827 156.656 75.8427 156.4 75.16C156.229 74.4773 156.059 73.7947 155.888 73.112C156.059 72.6853 156.187 72.3013 156.272 71.96C156.357 71.5333 156.4 71.1493 156.4 70.808C156.485 70.3813 156.485 69.9547 156.4 69.528C156.4 69.016 156.4 68.5467 156.4 68.12C156.485 66.7547 156.485 65.4747 156.4 64.28C156.4 63 156.315 61.72 156.144 60.44C155.973 59.416 155.845 58.4347 155.76 57.496C155.76 56.472 155.717 55.4053 155.632 54.296C155.888 53.9547 156.101 53.6133 156.272 53.272C156.528 52.9307 156.827 52.5893 157.168 52.248C157.253 51.5653 157.296 51.224 157.296 51.224C157.296 51.1387 157.296 50.712 157.296 49.944C157.211 48.7493 157.211 47.512 157.296 46.232C157.381 44.8667 157.552 43.5867 157.808 42.392C157.723 41.4533 157.595 40.5573 157.424 39.704C157.253 38.7653 156.955 37.8693 156.528 37.016C156.699 36.5893 156.869 36.1627 157.04 35.736C157.296 35.3093 157.467 34.9253 157.552 34.584C157.467 33.9013 157.467 33.304 157.552 32.792C157.723 32.28 157.68 31.7253 157.424 31.128C157.339 30.872 157.125 30.6587 156.784 30.488C156.187 30.488 155.589 30.4453 154.992 30.36C154.395 30.2747 153.797 30.232 153.2 30.232C152.603 30.232 152.005 30.1467 151.408 29.976C150.896 29.8053 150.341 29.8053 149.744 29.976C149.232 30.232 148.72 30.2747 148.208 30.104C147.781 29.848 147.312 29.7627 146.8 29.848H143.472L140.272 29.336C140.101 29.336 139.888 29.208 139.632 28.952C139.376 28.696 139.248 28.44 139.248 28.184V27.288C139.419 26.776 139.547 26.264 139.632 25.752C139.803 25.1547 139.803 24.5573 139.632 23.96C139.547 23.8747 139.504 23.7467 139.504 23.576C139.589 23.32 139.632 23.1493 139.632 23.064C139.973 21.528 140.144 19.736 140.144 17.688C140.144 15.64 140.059 13.848 139.888 12.312C139.888 11.8 139.888 11.288 139.888 10.776C139.888 10.264 139.973 9.79466 140.144 9.368C140.571 8.94133 140.997 8.728 141.424 8.728C141.851 8.64266 142.277 8.55733 142.704 8.472C143.131 8.30133 143.515 8.13066 143.856 7.96C144.197 7.704 144.581 7.53333 145.008 7.448C146.971 6.76533 148.805 6.76533 150.512 7.448C150.512 7.448 150.811 7.53333 151.408 7.70399C152.176 7.36266 152.987 7.23466 153.84 7.32C154.693 7.32 155.589 7.10667 156.528 6.68C156.699 6.68 156.955 6.72267 157.296 6.808C157.723 6.808 158.149 6.808 158.576 6.808C159.344 6.46666 160.112 6.12533 160.88 5.784C161.733 5.44266 162.544 4.93066 163.312 4.24799C164.677 4.07733 166 4.03466 167.28 4.12C168.645 4.20533 169.925 4.03466 171.12 3.60799C171.717 3.69333 172.229 3.864 172.656 4.12C173.168 4.29066 173.595 4.46133 173.936 4.632C174.533 4.632 175.003 4.46133 175.344 4.12C175.685 3.69333 176.197 3.43733 176.88 3.352C177.563 3.18133 178.544 3.22399 179.824 3.48C180.336 3.56533 180.848 3.82133 181.36 4.24799C181.957 4.58933 182.555 4.71733 183.152 4.632C183.579 4.37599 183.92 4.12 184.176 3.864C184.517 3.608 184.901 3.35199 185.328 3.09599C185.84 3.09599 186.395 3.22399 186.992 3.48C187.589 3.65067 188.144 3.69333 188.656 3.60799C189.253 3.52266 189.808 3.43733 190.32 3.352C190.917 3.18133 191.643 3.09599 192.496 3.09599C192.837 3.18133 193.179 3.30933 193.52 3.48C193.861 3.56533 194.203 3.69333 194.544 3.864C195.056 3.69333 195.568 3.56533 196.08 3.48C196.677 3.39466 197.275 3.30933 197.872 3.224C198.043 3.48 198.213 3.73599 198.384 3.992C198.555 4.248 198.683 4.46133 198.768 4.632ZM274.656 23.96C274.741 24.6427 274.656 25.3253 274.4 26.008C274.229 26.6053 274.016 27.2027 273.76 27.8C273.248 27.8 272.821 27.8427 272.48 27.928C272.139 28.0987 272.011 28.3973 272.096 28.824C272.267 29.2507 272.224 29.6347 271.968 29.976C271.797 30.3173 271.627 30.7013 271.456 31.128C271.285 31.5547 271.115 31.896 270.944 32.152C270.859 32.7493 270.987 33.2187 271.328 33.56C271.755 33.9013 271.968 34.328 271.968 34.84C272.053 35.1813 272.011 35.5227 271.84 35.864C271.755 36.12 271.627 36.4187 271.456 36.76C271.285 37.1013 271.072 37.4 270.816 37.656C270.645 37.912 270.475 38.2107 270.304 38.552C270.048 38.9787 269.749 39.448 269.408 39.96C269.152 40.472 268.896 40.9413 268.64 41.368C268.299 41.7093 267.872 42.0507 267.36 42.392C266.933 42.7333 266.507 43.0747 266.08 43.416C265.909 43.672 265.739 43.9707 265.568 44.312C265.397 44.568 265.227 44.9093 265.056 45.336C263.691 46.4453 262.325 47.5547 260.96 48.664C259.595 49.7733 258.187 50.7973 256.736 51.736C255.712 52.0773 254.645 52.376 253.536 52.632C252.427 52.8027 251.317 52.9733 250.208 53.144C249.355 53.2293 248.501 53.3573 247.648 53.528C246.795 53.6987 245.899 53.912 244.96 54.168C244.448 54.2533 243.936 54.3387 243.424 54.424C242.912 54.424 242.315 54.424 241.632 54.424C240.523 54.5093 239.413 54.5947 238.304 54.68C237.28 54.68 236.299 54.68 235.36 54.68C234.336 55.1067 233.781 55.6187 233.696 56.216C233.611 56.728 233.483 57.24 233.312 57.752C233.141 58.264 232.971 58.776 232.8 59.288C232.8 60.3973 232.715 61.5493 232.544 62.744C232.459 63.9387 232.459 65.0907 232.544 66.2C232.544 66.6267 232.501 66.9253 232.416 67.096C232.416 67.608 232.373 68.1627 232.288 68.76C232.288 69.272 232.288 69.784 232.288 70.296C232.288 70.808 232.288 71.32 232.288 71.832C232.373 72.2587 232.459 72.6853 232.544 73.112C232.8 74.7333 232.587 76.3547 231.904 77.976C231.904 78.4027 231.819 78.7867 231.648 79.128C231.392 79.8107 230.923 80.0667 230.24 79.896C228.96 79.4693 227.68 79.2133 226.4 79.128C225.205 79.128 223.925 79.2133 222.56 79.384H220.896C219.701 79.9813 218.464 80.3653 217.184 80.536C215.904 80.7067 214.581 80.8347 213.216 80.92C212.448 80.92 211.979 80.664 211.808 80.152C211.808 80.152 211.765 80.1093 211.68 80.024C211.68 80.024 211.68 79.9813 211.68 79.896C211.509 77.7627 211.296 75.5867 211.04 73.368C210.784 71.1493 210.699 68.9733 210.784 66.84C210.784 66.4133 210.741 65.9867 210.656 65.56C210.656 65.1333 210.613 64.7493 210.528 64.408C210.357 63.4693 210.229 62.5307 210.144 61.592C210.059 60.568 209.973 59.5867 209.888 58.648C209.888 58.3067 209.888 57.9653 209.888 57.624C209.888 57.2827 209.803 56.9413 209.632 56.6C209.291 55.9173 209.12 55.192 209.12 54.424C209.205 53.656 209.248 52.9733 209.248 52.376C209.504 51.7787 209.675 51.3093 209.76 50.968C209.845 50.5413 209.931 50.072 210.016 49.56C209.76 49.2187 209.632 48.92 209.632 48.664C209.717 48.3227 209.675 48.024 209.504 47.768C209.504 47.5973 209.461 47.4693 209.376 47.384C209.291 47.2133 209.248 47.0853 209.248 47C209.163 44.8667 209.077 42.4347 208.992 39.704C208.992 36.9733 208.992 34.4133 208.992 32.024C209.077 29.6347 209.163 27.928 209.248 26.904C209.419 26.5627 209.589 26.264 209.76 26.008C210.016 25.752 210.187 25.496 210.272 25.24C210.272 24.984 210.187 24.8133 210.016 24.728C209.845 24.5573 209.675 24.4293 209.504 24.344C209.675 23.576 209.845 22.808 210.016 22.04C210.272 21.272 210.485 20.504 210.656 19.736C210.571 19.3093 210.485 18.9253 210.4 18.584C210.315 18.2427 210.187 17.9013 210.016 17.56C210.272 16.9627 210.528 16.28 210.784 15.512C210.699 14.8293 210.613 14.0613 210.528 13.208C210.528 12.3547 210.443 11.4587 210.272 10.52C210.443 10.264 210.571 9.92266 210.656 9.49599C210.741 8.984 210.869 8.51466 211.04 8.088C211.211 7.66133 211.211 7.23466 211.04 6.808C210.955 6.38133 211.04 5.99733 211.296 5.656C211.808 5.48533 212.235 5.44266 212.576 5.528C212.747 5.61333 212.96 5.74133 213.216 5.91199C213.472 5.99733 213.685 6.08266 213.856 6.168H214.752C215.776 5.82667 216.8 5.528 217.824 5.272C218.933 4.93066 219.957 4.54666 220.896 4.12C221.493 3.77866 222.176 3.69333 222.944 3.864C223.456 3.94933 223.925 4.03466 224.352 4.12C224.864 4.12 225.333 4.03466 225.76 3.864C226.357 3.77867 226.912 3.736 227.424 3.736C228.021 3.65066 228.619 3.60799 229.216 3.60799C230.837 3.60799 232.459 3.48 234.08 3.224C235.701 2.968 237.323 2.66933 238.944 2.328C239.627 2.07199 240.352 1.98666 241.12 2.072C241.888 2.15733 242.613 2.15733 243.296 2.072C243.893 2.24266 244.491 2.456 245.088 2.712C245.685 2.88266 246.283 3.05333 246.88 3.224C247.477 3.39466 248.075 3.56533 248.672 3.736C249.269 3.82133 249.952 3.94933 250.72 4.12C252 3.77866 253.365 3.65066 254.816 3.736C256.267 3.736 257.675 3.77867 259.04 3.864C259.808 3.94933 260.533 4.12 261.216 4.376C261.984 4.632 262.667 4.97333 263.264 5.39999C264.117 5.74133 265.056 6.296 266.08 7.064C266.507 7.40533 266.891 7.78933 267.232 8.216C267.659 8.55733 268.043 8.94133 268.384 9.368C268.555 9.45333 268.683 9.624 268.768 9.88C268.853 10.0507 268.939 10.2213 269.024 10.392C269.195 10.9893 269.493 11.4587 269.92 11.8C270.347 12.1413 270.731 12.5253 271.072 12.952C272.608 15.256 273.376 17.9013 273.376 20.888C273.547 21.4 273.76 21.9547 274.016 22.552C274.272 23.064 274.485 23.5333 274.656 23.96ZM254.048 25.752C253.963 25.24 253.792 24.728 253.536 24.216C253.365 23.704 253.195 23.192 253.024 22.68C252.939 22.424 252.811 22.2107 252.64 22.04C252.555 21.8693 252.469 21.7413 252.384 21.656C252.213 21.2293 251.872 21.1013 251.36 21.272C251.189 21.4427 251.019 21.5707 250.848 21.656C250.677 21.7413 250.507 21.8693 250.336 22.04C249.909 22.1253 249.483 22.2107 249.056 22.296C248.715 22.296 248.331 22.3387 247.904 22.424H246.368C246.112 22.2533 245.813 22.0827 245.472 21.912C245.216 21.656 244.875 21.4 244.448 21.144C243.851 21.0587 243.168 21.016 242.4 21.016C241.717 20.9307 241.035 20.9307 240.352 21.016C238.731 21.3573 237.451 21.9973 236.512 22.936C236 22.7653 235.573 22.68 235.232 22.68C234.976 22.5093 234.72 22.4667 234.464 22.552C234.208 22.6373 233.952 22.68 233.696 22.68C233.184 22.936 232.715 23.2347 232.288 23.576C231.861 23.9173 231.52 24.3867 231.264 24.984C231.179 25.3253 231.051 25.7093 230.88 26.136C230.795 26.4773 230.752 26.8613 230.752 27.288C230.667 28.1413 230.581 29.0373 230.496 29.976C230.496 30.8293 230.453 31.7253 230.368 32.664C230.368 33.176 230.325 33.7307 230.24 34.328C230.24 34.84 230.283 35.352 230.368 35.864C230.368 35.9493 230.411 36.12 230.496 36.376C230.581 36.632 230.667 36.8453 230.752 37.016C231.947 36.8453 233.056 36.76 234.08 36.76C235.104 36.6747 236.085 36.7173 237.024 36.888C237.963 37.144 238.901 37.3147 239.84 37.4C240.864 37.4853 241.803 37.656 242.656 37.912C243.083 37.9973 243.595 37.9547 244.192 37.784C244.704 37.3573 245.173 36.9307 245.6 36.504C246.112 36.0773 246.624 35.6507 247.136 35.224C247.563 35.1387 247.947 35.096 248.288 35.096C248.715 35.0107 249.099 34.9253 249.44 34.84C249.952 34.4133 250.464 33.9867 250.976 33.56C251.488 33.048 251.957 32.5787 252.384 32.152C252.555 31.5547 252.683 31 252.768 30.488C252.939 29.976 253.067 29.4213 253.152 28.824C253.323 28.312 253.493 27.8427 253.664 27.416C253.92 26.904 254.048 26.3493 254.048 25.752ZM331.462 62.104C331.547 62.7013 331.505 63.384 331.334 64.152C331.249 64.8347 331.206 65.5173 331.206 66.2C331.206 66.7973 331.163 67.4373 331.078 68.12C330.993 68.8027 330.865 69.4853 330.694 70.168C330.438 70.7653 330.353 71.4053 330.438 72.088C330.523 72.6853 330.523 73.3253 330.438 74.008C330.267 74.3493 330.054 74.7333 329.798 75.16C329.627 75.5867 329.414 76.0133 329.158 76.44C329.073 76.7813 328.945 77.1653 328.774 77.592C328.603 77.9333 328.433 78.3173 328.262 78.744C327.665 79 327.067 79.256 326.47 79.512C325.958 79.8533 325.446 80.1093 324.934 80.28C323.825 80.536 322.63 80.5787 321.35 80.408C320.155 80.2373 318.961 80.3227 317.766 80.664C317.595 80.7493 317.382 80.8347 317.126 80.92C316.955 81.0053 316.699 81.1333 316.358 81.304C316.017 81.3893 315.59 81.4747 315.078 81.56C314.651 81.6453 314.225 81.7307 313.798 81.816C313.457 81.816 313.115 81.816 312.774 81.816C312.518 81.816 312.305 81.7733 312.134 81.688C311.622 81.432 311.11 81.304 310.598 81.304C310.171 81.304 309.745 81.3893 309.318 81.56C308.977 81.56 308.635 81.5173 308.294 81.432C307.953 81.3467 307.569 81.2613 307.142 81.176C306.715 81.6027 306.161 81.944 305.478 82.2C304.795 82.456 304.07 82.4987 303.302 82.328C302.534 82.2427 301.851 82.4133 301.254 82.84C300.742 82.584 300.273 82.3707 299.846 82.2C299.505 82.0293 299.121 81.9013 298.694 81.816C298.097 81.7307 297.499 81.7733 296.902 81.944C296.39 82.1147 295.793 82.1573 295.11 82.072C294.427 81.9013 293.745 81.9013 293.062 82.072C292.465 82.2427 291.825 82.328 291.142 82.328C290.459 82.2427 289.819 82.2 289.222 82.2C288.625 82.2853 288.07 82.4133 287.558 82.584C287.473 82.328 287.345 82.1147 287.174 81.944C287.003 81.8587 286.918 81.7733 286.918 81.688C286.321 79.0427 286.022 76.184 286.022 73.112C286.193 72.2587 286.235 71.448 286.15 70.68C286.065 69.8267 286.022 68.9307 286.022 67.992C285.425 66.2853 285.041 64.5787 284.87 62.872C284.785 61.1653 284.785 59.416 284.87 57.624C284.955 55.9173 285.041 54.168 285.126 52.376C285.211 50.584 285.297 48.7493 285.382 46.872C285.382 46.1893 285.425 45.464 285.51 44.696C285.595 43.928 285.723 43.2027 285.894 42.52C286.235 41.6667 286.449 40.8133 286.534 39.96C286.619 39.0213 286.662 38.0827 286.662 37.144C286.662 36.376 286.662 35.608 286.662 34.84C286.662 33.9867 286.619 33.1333 286.534 32.28C286.534 31.9387 286.534 31.5547 286.534 31.128C286.534 30.7013 286.491 30.2747 286.406 29.848C286.235 29.1653 286.107 28.4827 286.022 27.8C285.937 27.1173 285.894 26.4773 285.894 25.88C285.979 25.4533 285.979 25.0267 285.894 24.6C285.894 24.1733 285.851 23.7467 285.766 23.32C285.681 22.9787 285.681 22.5947 285.766 22.168C285.851 21.7413 285.851 21.3573 285.766 21.016C285.681 20.4187 285.638 19.864 285.638 19.352C285.638 18.84 285.723 18.328 285.894 17.816C285.979 17.304 285.937 16.7493 285.766 16.152C285.681 15.4693 285.595 14.7867 285.51 14.104C285.51 13.336 285.595 12.6533 285.766 12.056C286.022 11.032 286.193 10.008 286.278 8.98399C286.363 7.87466 286.449 6.89333 286.534 6.03999C286.705 5.35733 286.961 4.84533 287.302 4.504C287.729 4.07733 287.899 3.608 287.814 3.09599C287.729 2.58399 287.942 2.24266 288.454 2.072C288.966 1.816 289.009 1.38933 288.582 0.792C289.179 0.792 289.521 0.834666 289.606 0.919998C291.227 1.60266 292.635 1.68799 293.83 1.17599C294.342 1.26133 294.854 1.34666 295.366 1.432C295.878 1.51733 296.347 1.56 296.774 1.56C297.201 1.64533 297.67 1.64533 298.182 1.56C298.694 1.47467 299.163 1.38933 299.59 1.30399C300.614 1.048 301.595 0.834663 302.534 0.663994C303.558 0.407997 304.582 0.279999 305.606 0.279999C306.545 0.109329 307.398 0.109329 308.166 0.279999C308.422 0.279999 308.806 0.450666 309.318 0.792C309.233 1.13333 309.147 1.47466 309.062 1.81599C309.062 2.15733 309.019 2.49866 308.934 2.84C309.019 3.26666 309.105 3.73599 309.19 4.24799C309.361 4.67466 309.446 5.14399 309.446 5.656C309.531 6.08266 309.659 6.552 309.83 7.064C310.086 7.49066 310.299 7.96 310.47 8.472C310.214 8.984 309.958 9.58133 309.702 10.264C309.446 10.8613 309.19 11.4587 308.934 12.056C309.105 12.3973 309.233 12.7387 309.318 13.08C309.403 13.336 309.489 13.6347 309.574 13.976C309.233 15.512 308.891 17.048 308.55 18.584C308.294 20.12 308.123 21.6987 308.038 23.32C307.953 23.7467 307.825 24.216 307.654 24.728C307.569 25.1547 307.441 25.6667 307.27 26.264C307.441 26.6053 307.611 26.9893 307.782 27.416C307.953 27.7573 308.081 28.1413 308.166 28.568L307.654 31.128C307.654 31.4693 307.654 31.8533 307.654 32.28C307.654 32.6213 307.569 32.92 307.398 33.176C307.142 33.7733 306.971 34.3707 306.886 34.968C306.886 35.5653 306.801 36.2053 306.63 36.888C306.63 37.9973 306.587 39.1493 306.502 40.344C306.417 41.4533 306.417 42.6053 306.502 43.8C306.502 44.568 306.374 45.2933 306.118 45.976C305.947 46.5733 305.777 47.2987 305.606 48.152C305.777 48.4933 305.905 48.8347 305.99 49.176C306.075 49.5173 306.161 49.9013 306.246 50.328C306.161 50.7547 306.033 51.224 305.862 51.736C305.777 52.1627 305.649 52.632 305.478 53.144C305.734 53.7413 305.99 54.3387 306.246 54.936C306.502 55.5333 306.758 56.1733 307.014 56.856C307.185 57.1973 307.313 57.5387 307.398 57.88C307.483 58.136 307.569 58.4347 307.654 58.776C307.91 59.4587 308.166 59.8853 308.422 60.056C308.763 60.2267 309.233 60.2693 309.83 60.184C311.025 59.8427 312.262 59.5867 313.542 59.416C314.822 59.2453 316.102 59.032 317.382 58.776C317.638 58.6907 318.065 58.648 318.662 58.648C319.43 58.648 320.198 58.5627 320.966 58.392C321.819 58.2213 322.587 57.9227 323.27 57.496C324.806 56.5573 326.385 56.216 328.006 56.472C328.433 56.5573 328.859 56.5573 329.286 56.472C329.713 56.3867 330.139 56.4293 330.566 56.6C330.651 56.6853 330.737 56.856 330.822 57.112C330.907 57.2827 330.95 57.4533 330.95 57.624C331.206 58.392 331.334 59.16 331.334 59.928C331.419 60.6107 331.462 61.336 331.462 62.104ZM385.009 9.368C385.265 9.96533 385.393 10.6053 385.393 11.288C385.478 11.9707 385.308 12.6533 384.881 13.336C384.71 13.6773 384.625 14.0187 384.625 14.36C384.71 14.616 384.753 14.9573 384.753 15.384C384.582 15.64 384.369 15.896 384.113 16.152C383.857 16.3227 383.644 16.5787 383.473 16.92C383.302 17.0907 383.132 17.304 382.961 17.56C382.876 17.816 382.662 18.0293 382.321 18.2C381.894 18.1147 381.382 18.072 380.785 18.072C380.188 18.072 379.633 18.072 379.121 18.072C377.841 18.072 376.689 18.4133 375.665 19.096C375.324 19.4373 374.982 19.6933 374.641 19.864C374.3 19.9493 373.958 20.0773 373.617 20.248C373.105 20.76 372.934 21.272 373.105 21.784V24.216C373.19 24.984 373.276 25.752 373.361 26.52C373.532 27.2027 373.574 27.9707 373.489 28.824C373.404 28.9947 373.404 29.2507 373.489 29.592C373.574 29.848 373.66 30.0613 373.745 30.232C373.66 30.5733 373.532 30.872 373.361 31.128C373.276 31.2987 373.19 31.5547 373.105 31.896C373.19 32.2373 373.276 32.5787 373.361 32.92C373.446 33.176 373.532 33.4747 373.617 33.816C373.617 34.2427 373.574 34.5413 373.489 34.712C373.318 35.224 373.148 35.736 372.977 36.248C372.892 36.76 372.764 37.272 372.593 37.784C372.337 38.3813 372.294 38.936 372.465 39.448C372.636 39.96 372.593 40.472 372.337 40.984C372.337 42.776 372.252 44.5253 372.081 46.232C371.91 47.9387 371.782 49.6453 371.697 51.352C371.697 53.5707 372.081 55.832 372.849 58.136C373.19 58.904 373.745 59.288 374.513 59.288C374.684 59.2027 374.854 59.0747 375.025 58.904C375.281 58.7333 375.537 58.6053 375.793 58.52C376.049 58.52 376.262 58.6053 376.433 58.776C377.116 59.544 377.884 60.056 378.737 60.312C380.102 60.6533 380.486 61.336 379.889 62.36C379.633 62.9573 379.505 63.5973 379.505 64.28C379.59 64.9627 379.59 65.6453 379.505 66.328C379.334 68.2053 379.249 70.1253 379.249 72.088C379.249 73.9653 379.377 75.8853 379.633 77.848C379.633 78.7867 379.548 79.384 379.377 79.64C379.292 79.9813 378.78 80.4933 377.841 81.176H377.457C376.774 81.0907 376.092 81.0053 375.409 80.92C374.812 80.8347 374.214 80.7493 373.617 80.664C371.996 80.92 370.545 81.048 369.265 81.048C368.668 81.1333 368.07 81.2613 367.473 81.432C366.961 81.688 366.364 81.7733 365.681 81.688C364.998 81.5173 364.316 81.5173 363.633 81.688C362.95 81.8587 362.268 81.944 361.585 81.944C361.244 81.7733 360.902 81.6453 360.561 81.56C360.305 81.4747 359.964 81.3467 359.537 81.176C357.489 81.5173 355.441 81.7307 353.393 81.816C351.345 81.9013 349.254 81.9867 347.121 82.072C346.694 81.4747 346.268 80.92 345.841 80.408C345.414 79.9813 345.03 79.512 344.689 79C344.518 78.4027 344.177 77.8907 343.665 77.464C343.238 77.0373 342.812 76.6533 342.385 76.312C342.3 75.4587 342.129 74.648 341.873 73.88C341.702 73.1973 341.702 72.5147 341.873 71.832C342.129 71.4053 342.214 70.9787 342.129 70.552C341.958 69.784 341.916 69.016 342.001 68.248C342.172 67.3947 342.342 66.584 342.513 65.816V64.28C343.196 64.1093 343.878 63.9813 344.561 63.896C345.244 63.7253 345.926 63.7253 346.609 63.896C346.95 63.7253 347.249 63.5547 347.505 63.384C347.761 63.128 348.06 62.872 348.401 62.616C348.828 62.7867 349.254 62.9573 349.681 63.128C350.108 63.2987 350.577 63.4693 351.089 63.64C351.942 63.128 352.924 62.4453 354.033 61.592C354.204 61.08 354.289 60.696 354.289 60.44C354.289 59.5013 354.289 58.5627 354.289 57.624C354.289 56.6 354.332 55.6187 354.417 54.68V54.296C354.076 53.4427 353.948 52.632 354.033 51.864C354.118 51.096 354.118 50.2853 354.033 49.432V47.768C354.204 45.8053 354.246 43.8853 354.161 42.008C354.161 40.0453 354.118 38.0827 354.033 36.12L354.929 34.456C354.844 34.0293 354.758 33.6027 354.673 33.176C354.588 32.7493 354.502 32.3227 354.417 31.896C354.502 31.4693 354.588 31.0853 354.673 30.744C354.844 30.4027 354.972 30.0187 355.057 29.592C355.057 29.2507 355.014 28.9947 354.929 28.824C354.502 27.8 354.332 26.8613 354.417 26.008V24.088C354.417 23.7467 354.332 23.4907 354.161 23.32C353.99 23.064 353.905 22.7653 353.905 22.424C353.99 22.2533 354.033 21.8693 354.033 21.272C353.948 20.76 353.862 20.248 353.777 19.736C353.692 19.224 353.564 18.712 353.393 18.2C352.966 17.7733 352.497 17.6453 351.985 17.816C351.473 17.9013 351.004 17.9013 350.577 17.816C350.15 17.6453 349.681 17.56 349.169 17.56C348.657 17.56 348.102 17.56 347.505 17.56C346.908 17.2187 346.225 17.0907 345.457 17.176C344.774 17.176 344.092 17.048 343.409 16.792C343.068 16.3653 342.897 15.8533 342.897 15.256C342.982 14.6587 342.897 14.232 342.641 13.976C342.47 13.6347 342.47 13.208 342.641 12.696C342.812 12.0987 342.812 11.5867 342.641 11.16C342.982 10.7333 343.025 10.4347 342.769 10.264C342.513 10.0933 342.513 9.752 342.769 9.24C343.025 8.81333 343.153 8.344 343.153 7.83199C343.153 7.23466 343.324 6.76533 343.665 6.424C343.836 6.25333 343.878 5.99733 343.793 5.656C343.793 5.22933 343.836 4.84533 343.921 4.504C344.092 4.33333 344.476 4.24799 345.073 4.24799C345.67 4.16266 346.012 4.03466 346.097 3.864C346.438 3.43733 346.822 3.13866 347.249 2.96799C347.761 2.79733 348.273 2.584 348.785 2.328C348.956 2.328 349.169 2.328 349.425 2.328C349.681 2.24266 349.98 2.2 350.321 2.2C351.004 2.2 351.729 2.2 352.497 2.2C353.265 2.2 353.99 2.15733 354.673 2.072C355.356 1.90133 356.038 1.77333 356.721 1.688C357.404 1.51733 358.129 1.38933 358.897 1.30399C359.665 1.13333 360.433 1.176 361.201 1.432C362.31 1.77333 363.676 1.73066 365.297 1.30399C365.638 1.21866 365.937 1.13333 366.193 1.048C366.449 0.962664 366.662 0.877332 366.833 0.792C367.43 0.877332 367.942 0.962664 368.369 1.048C368.881 1.13333 369.308 1.17599 369.649 1.17599C369.905 1.17599 370.161 1.13333 370.417 1.048C370.758 0.962664 371.014 0.919998 371.185 0.919998C372.038 0.919998 372.806 0.962664 373.489 1.048C374.257 1.048 375.025 1.13333 375.793 1.30399C377.414 1.56 378.865 1.64533 380.145 1.56C380.572 1.47467 380.913 1.47467 381.169 1.56C381.51 1.56 381.724 1.56 381.809 1.56C382.406 1.64533 382.833 1.85866 383.089 2.2C383.43 2.456 383.686 2.66933 383.857 2.84C385.222 4.20533 385.521 5.61333 384.753 7.064C384.668 7.14933 384.625 7.448 384.625 7.96C384.71 8.13066 384.753 8.344 384.753 8.6C384.838 8.77066 384.924 9.02666 385.009 9.368Z" fill="white"/>
</svg>
