<?xml version="1.0" encoding="utf-8"?>
<svg xmlns="http://www.w3.org/2000/svg" xmlns:xlink="http://www.w3.org/1999/xlink" style="margin: auto; background: rgb(255, 255, 255); display: block; shape-rendering: auto;" width="200px" height="200px" viewBox="0 0 100 100" preserveAspectRatio="xMidYMid">
<g transform="rotate(0 50 50)">
  <rect x="47" y="24" rx="3" ry="6" width="6" height="12" fill="#71cefe">
    <animate attributeName="opacity" values="1;0" keyTimes="0;1" dur="1.1494252873563218s" begin="-1.053639846743295s" repeatCount="indefinite"></animate>
  </rect>
</g><g transform="rotate(30 50 50)">
  <rect x="47" y="24" rx="3" ry="6" width="6" height="12" fill="#71cefe">
    <animate attributeName="opacity" values="1;0" keyTimes="0;1" dur="1.1494252873563218s" begin="-0.9578544061302683s" repeatCount="indefinite"></animate>
  </rect>
</g><g transform="rotate(60 50 50)">
  <rect x="47" y="24" rx="3" ry="6" width="6" height="12" fill="#71cefe">
    <animate attributeName="opacity" values="1;0" keyTimes="0;1" dur="1.1494252873563218s" begin="-0.8620689655172414s" repeatCount="indefinite"></animate>
  </rect>
</g><g transform="rotate(90 50 50)">
  <rect x="47" y="24" rx="3" ry="6" width="6" height="12" fill="#71cefe">
    <animate attributeName="opacity" values="1;0" keyTimes="0;1" dur="1.1494252873563218s" begin="-0.7662835249042146s" repeatCount="indefinite"></animate>
  </rect>
</g><g transform="rotate(120 50 50)">
  <rect x="47" y="24" rx="3" ry="6" width="6" height="12" fill="#71cefe">
    <animate attributeName="opacity" values="1;0" keyTimes="0;1" dur="1.1494252873563218s" begin="-0.6704980842911877s" repeatCount="indefinite"></animate>
  </rect>
</g><g transform="rotate(150 50 50)">
  <rect x="47" y="24" rx="3" ry="6" width="6" height="12" fill="#71cefe">
    <animate attributeName="opacity" values="1;0" keyTimes="0;1" dur="1.1494252873563218s" begin="-0.574712643678161s" repeatCount="indefinite"></animate>
  </rect>
</g><g transform="rotate(180 50 50)">
  <rect x="47" y="24" rx="3" ry="6" width="6" height="12" fill="#71cefe">
    <animate attributeName="opacity" values="1;0" keyTimes="0;1" dur="1.1494252873563218s" begin="-0.47892720306513414s" repeatCount="indefinite"></animate>
  </rect>
</g><g transform="rotate(210 50 50)">
  <rect x="47" y="24" rx="3" ry="6" width="6" height="12" fill="#71cefe">
    <animate attributeName="opacity" values="1;0" keyTimes="0;1" dur="1.1494252873563218s" begin="-0.3831417624521073s" repeatCount="indefinite"></animate>
  </rect>
</g><g transform="rotate(240 50 50)">
  <rect x="47" y="24" rx="3" ry="6" width="6" height="12" fill="#71cefe">
    <animate attributeName="opacity" values="1;0" keyTimes="0;1" dur="1.1494252873563218s" begin="-0.2873563218390805s" repeatCount="indefinite"></animate>
  </rect>
</g><g transform="rotate(270 50 50)">
  <rect x="47" y="24" rx="3" ry="6" width="6" height="12" fill="#71cefe">
    <animate attributeName="opacity" values="1;0" keyTimes="0;1" dur="1.1494252873563218s" begin="-0.19157088122605365s" repeatCount="indefinite"></animate>
  </rect>
</g><g transform="rotate(300 50 50)">
  <rect x="47" y="24" rx="3" ry="6" width="6" height="12" fill="#71cefe">
    <animate attributeName="opacity" values="1;0" keyTimes="0;1" dur="1.1494252873563218s" begin="-0.09578544061302682s" repeatCount="indefinite"></animate>
  </rect>
</g><g transform="rotate(330 50 50)">
  <rect x="47" y="24" rx="3" ry="6" width="6" height="12" fill="#71cefe">
    <animate attributeName="opacity" values="1;0" keyTimes="0;1" dur="1.1494252873563218s" begin="0s" repeatCount="indefinite"></animate>
  </rect>
</g>
<!-- [ldio] generated by https://loading.io/ --></svg>