<svg width="20" height="20" viewBox="0 0 20 20" fill="none" xmlns="http://www.w3.org/2000/svg">
<path d="M12.9104 2.92223C12.21 2.98538 11.6611 3.57437 11.6611 4.29163L11.6611 8.33329C11.6611 8.67846 11.3814 8.95829 11.0364 8.95829C9.83352 8.95829 8.9886 9.44813 8.36377 10.1983C7.71993 10.9713 7.3006 12.0366 7.03797 13.1628C6.77714 14.2813 6.68228 15.4093 6.6538 16.2643C6.6432 16.5822 6.64185 16.8603 6.6443 17.0833L12.494 17.0833L12.494 16.4583C12.494 15.4228 11.655 14.5833 10.62 14.5833L9.57894 14.5833C9.23394 14.5833 8.95427 14.3035 8.95427 13.9583C8.95427 13.6131 9.23394 13.3333 9.57894 13.3333L10.62 13.3333C12.3449 13.3333 13.7433 14.7324 13.7433 16.4583L13.7433 17.0833L14.3679 17.0833C14.7129 17.0833 14.9926 16.8035 14.9926 16.4583L14.9926 8.12496C14.9926 7.77978 15.2723 7.49996 15.6173 7.49996L16.0394 7.49996C16.8554 7.49996 17.3541 6.60333 16.9242 5.90939L16.4078 5.07606C16.2179 4.76968 15.8833 4.58329 15.5229 4.58329L13.5351 4.58329C13.1901 4.58329 12.9104 4.30347 12.9104 3.95829L12.9104 2.92223ZM5.39492 17.0833C5.3925 16.8463 5.39413 16.5545 5.40519 16.2226C5.43526 15.3198 5.53561 14.104 5.82135 12.8788C6.10528 11.6612 6.5839 10.3828 7.40405 9.39804C8.1307 8.52554 9.1166 7.8972 10.4119 7.74428L10.4119 4.29163C10.4119 2.84188 11.5864 1.66663 13.0354 1.66663C13.6564 1.66663 14.1597 2.17031 14.1597 2.79163L14.1597 3.33329L15.5229 3.33329C16.3156 3.33329 17.0519 3.74335 17.4695 4.41739L17.9859 5.25073C18.8958 6.71905 17.9154 8.59996 16.2419 8.74146L16.2419 16.4583C16.2419 17.4938 15.4029 18.3333 14.3679 18.3333L6.03925 18.3333L6.03783 18.3333L4.83023 18.3333C3.08305 18.3333 1.66669 16.9161 1.66669 15.168C1.66669 14.3662 1.97076 13.5944 2.5175 13.0082L3.46345 11.9941C4.10006 11.3117 4.3127 10.3355 4.01766 9.44988C3.89264 9.07463 3.682 8.73363 3.40242 8.45388L2.4743 7.52531C2.23036 7.28123 2.23035 6.88551 2.47429 6.64143C2.71822 6.39734 3.11373 6.39733 3.35768 6.64141L4.2858 7.57C4.70252 7.98694 5.0165 8.49521 5.20285 9.05463C5.64264 10.3747 5.32569 11.8298 4.37676 12.847L3.43081 13.8611C3.09999 14.2158 2.91599 14.6829 2.91599 15.168C2.91599 16.2258 3.77303 17.0833 4.83023 17.0833L5.39492 17.0833Z"/>
</svg>
