<svg width="25" height="25" viewBox="0 0 25 25" fill="none" xmlns="http://www.w3.org/2000/svg">
<mask id="mask0_751_2110" style="mask-type:luminance" maskUnits="userSpaceOnUse" x="0" y="0" width="25" height="25">
<path d="M24.5 0.545288H0.5V24.5453H24.5V0.545288Z" fill="white"/>
</mask>
<g mask="url(#mask0_751_2110)">
<path d="M7.35 19.5453V18.6953H6.5H5.75C4.42453 18.6953 3.35 17.6208 3.35 16.2953V7.79529C3.35 6.4698 4.42451 5.39529 5.75 5.39529H19.25C20.5755 5.39529 21.65 6.46981 21.65 7.79529V16.2953C21.65 17.6208 20.5755 18.6953 19.25 18.6953H13.5H13.2167L12.99 18.8653L7.99002 22.6153C7.99001 22.6153 7.99001 22.6153 7.99 22.6153C7.72624 22.8131 7.35 22.6249 7.35 22.2953V19.5453Z" stroke-width="1.55"/>
</g>
</svg>
