<svg width="26" height="25" viewBox="0 0 26 25" fill="none" xmlns="http://www.w3.org/2000/svg">
<path d="M10.4166 5.20833V5.70833H10.9166H15.0833H15.5833V5.20833C15.5833 3.7816 14.4267 2.625 12.9999 2.625C11.5731 2.625 10.4166 3.7816 10.4166 5.20833ZM9.35409 5.70833H9.85409V5.20833C9.85409 3.47093 11.2625 2.0625 12.9999 2.0625C14.7373 2.0625 16.1458 3.47093 16.1458 5.20833V5.70833H16.6458H22.6353C22.7907 5.70833 22.9166 5.83426 22.9166 5.98958C22.9166 6.14491 22.7907 6.27083 22.6353 6.27083H21.2613H20.8073L20.7636 6.72267L19.5428 19.3385C19.3738 21.0845 17.9065 22.4167 16.1523 22.4167H9.84751C8.09339 22.4167 6.62607 21.0845 6.4571 19.3385L5.23622 6.72267L5.19249 6.27083H4.73854H3.3645C3.20918 6.27083 3.08325 6.14491 3.08325 5.98958C3.08325 5.83426 3.20918 5.70833 3.3645 5.70833H9.35409ZM11.9374 10.1562C11.9374 9.44863 11.3638 8.875 10.6562 8.875C9.94856 8.875 9.37492 9.44864 9.37492 10.1562V17.9688C9.37492 18.6763 9.94855 19.25 10.6562 19.25C11.3638 19.25 11.9374 18.6763 11.9374 17.9688V10.1562ZM15.3437 8.875C14.6361 8.875 14.0624 9.44863 14.0624 10.1562V17.9688C14.0624 18.6763 14.6361 19.25 15.3437 19.25C16.0513 19.25 16.6249 18.6763 16.6249 17.9688V10.1562C16.6249 9.44863 16.0513 8.875 15.3437 8.875Z" />
</svg>
