<svg width="18" height="19" viewBox="0 0 18 19" fill="none" xmlns="http://www.w3.org/2000/svg">
<path d="M7.5 4.29529H10.5C10.5 3.46686 9.82845 2.79529 9 2.79529C8.17155 2.79529 7.5 3.46686 7.5 4.29529ZM6.375 4.29529C6.375 2.84554 7.55025 1.67029 9 1.67029C10.4497 1.67029 11.625 2.84554 11.625 4.29529H15.9375C16.2481 4.29529 16.5 4.54713 16.5 4.85779C16.5 5.16845 16.2481 5.42029 15.9375 5.42029H14.9482L14.0692 14.5037C13.9297 15.9453 12.7181 17.0453 11.2697 17.0453H6.73027C5.28191 17.0453 4.07036 15.9453 3.93085 14.5037L3.05181 5.42029H2.0625C1.75184 5.42029 1.5 5.16845 1.5 4.85779C1.5 4.54713 1.75184 4.29529 2.0625 4.29529H6.375ZM7.875 7.85779C7.875 7.54713 7.62315 7.29529 7.3125 7.29529C7.00184 7.29529 6.75 7.54713 6.75 7.85779V13.4828C6.75 13.7934 7.00184 14.0453 7.3125 14.0453C7.62315 14.0453 7.875 13.7934 7.875 13.4828V7.85779ZM10.6875 7.29529C10.3769 7.29529 10.125 7.54713 10.125 7.85779V13.4828C10.125 13.7934 10.3769 14.0453 10.6875 14.0453C10.9981 14.0453 11.25 13.7934 11.25 13.4828V7.85779C11.25 7.54713 10.9981 7.29529 10.6875 7.29529Z" />
</svg>
