<svg width="18" height="19" viewBox="0 0 18 19" fill="none" xmlns="http://www.w3.org/2000/svg">
<path d="M7.15 4.29529V4.64529H7.5H10.5H10.85V4.29529C10.85 3.27356 10.0218 2.44529 9 2.44529C7.97825 2.44529 7.15 3.27356 7.15 4.29529ZM6.375 4.64529H6.725V4.29529C6.725 3.03884 7.74355 2.02029 9 2.02029C10.2565 2.02029 11.275 3.03884 11.275 4.29529V4.64529H11.625H15.9375C16.0549 4.64529 16.15 4.74043 16.15 4.85779C16.15 4.97514 16.0549 5.07029 15.9375 5.07029H14.9482H14.6304L14.5998 5.38658L13.7208 14.47C13.5987 15.7322 12.5379 16.6953 11.2697 16.6953H6.73027C5.46215 16.6953 4.40137 15.7322 4.27922 14.47L3.40018 5.38657L3.36957 5.07029H3.05181H2.0625C1.94514 5.07029 1.85 4.97515 1.85 4.85779C1.85 4.74043 1.94514 4.64529 2.0625 4.64529H6.375ZM8.225 7.85779C8.225 7.35383 7.81645 6.94529 7.3125 6.94529C6.80854 6.94529 6.4 7.35383 6.4 7.85779V13.4828C6.4 13.9867 6.80854 14.3953 7.3125 14.3953C7.81645 14.3953 8.225 13.9867 8.225 13.4828V7.85779ZM10.6875 6.94529C10.1836 6.94529 9.775 7.35383 9.775 7.85779V13.4828C9.775 13.9867 10.1835 14.3953 10.6875 14.3953C11.1915 14.3953 11.6 13.9867 11.6 13.4828V7.85779C11.6 7.35383 11.1914 6.94529 10.6875 6.94529Z" stroke-width="0.7"/>
</svg>
