<svg width="20" height="20" viewBox="0 0 20 20" fill="none" xmlns="http://www.w3.org/2000/svg">
<path d="M11.0409 1.66664L13.6955 1.66663C14.1199 1.66663 14.535 1.78442 14.896 2.00658L17.2026 3.426C17.3874 3.53975 17.5 3.74125 17.5 3.95829L17.5 5.20829C17.5 6.24383 16.6605 7.08329 15.625 7.08329L15.4167 7.08329L15.4167 14.6224C16.2475 14.7339 16.8288 15.0845 17.1622 15.6853C17.3483 16.0205 17.4272 16.3854 17.4641 16.7209C17.5001 17.0467 17.5 17.3869 17.5 17.6872L17.5 17.7083C17.5 18.0535 17.2202 18.3333 16.875 18.3333L13.5424 18.3333L4.86113 18.3333C3.09689 18.3333 1.66669 16.9031 1.66669 15.1389C1.66669 13.9738 2.29078 12.9551 3.2199 12.3978C3.51591 12.2203 3.89981 12.3163 4.07736 12.6123C4.25491 12.9083 4.15887 13.2922 3.86286 13.4698C3.29468 13.8105 2.91669 14.4309 2.91669 15.1389C2.91669 16.2127 3.78725 17.0833 4.86113 17.0833C5.12659 17.0833 5.29166 17.014 5.40137 16.9368C5.51737 16.8551 5.60805 16.7382 5.67792 16.5973C5.74834 16.4553 5.78898 16.3059 5.81129 16.1869C5.82217 16.1288 5.828 16.0817 5.83102 16.0514C5.83232 16.0383 5.83308 16.0285 5.83348 16.0227L5.83385 15.9937C5.83431 15.9655 5.83522 15.9253 5.83699 15.8744C5.84051 15.7727 5.84748 15.6279 5.86125 15.4497C5.88874 15.0943 5.94364 14.6019 6.05389 14.0522C6.26979 12.9755 6.71711 11.5787 7.68012 10.6026C8.38677 9.88646 8.77085 8.83704 8.96952 7.79932C9.16594 6.77342 9.16669 5.83997 9.16669 5.41663L9.16669 3.54164C9.16669 2.50659 10.0049 1.66665 11.0409 1.66664ZM6.45835 16.0416C7.083 16.0625 7.08299 16.063 7.08299 16.063L7.08292 16.065L7.08279 16.0682L7.08242 16.0765L7.08107 16.1004C7.07985 16.1194 7.07792 16.1445 7.07489 16.175C7.06884 16.2359 7.0583 16.319 7.03988 16.4172C7.00665 16.5945 6.9455 16.8334 6.83088 17.0833L12.8728 17.0833C12.7968 16.672 12.5899 16.2449 12.0279 15.9832C12.0187 15.979 12.0096 15.9745 12.0007 15.9697C11.9572 15.9469 11.8329 15.9059 11.6264 15.8732C11.4347 15.843 11.2229 15.8275 11.0417 15.8275C10.997 15.8275 10.8986 15.8289 10.806 15.8304L10.688 15.8323L10.6388 15.8332L10.6379 15.8332C10.2928 15.8395 10.0079 15.5649 10.0016 15.2197C9.99527 14.8746 10.2699 14.5897 10.615 14.5834L10.6663 14.5825L10.7863 14.5805C10.8759 14.579 10.9852 14.5775 11.0417 14.5775C11.2372 14.5775 11.4544 14.5905 11.6667 14.6168L11.6667 12.7106C11.6667 12.3655 11.9465 12.0856 12.2917 12.0856C12.6369 12.0856 12.9167 12.3655 12.9167 12.7106L12.9167 15.0477C13.804 15.6155 14.0616 16.4665 14.1363 17.0833L16.2396 17.0833C16.2354 17.0058 16.2297 16.9308 16.2217 16.8578C16.194 16.6071 16.1433 16.4252 16.0693 16.292C15.9609 16.0965 15.7082 15.8333 14.7917 15.8333C14.4465 15.8333 14.1667 15.5535 14.1667 15.2083L14.1667 6.45829C14.1667 6.11312 14.4465 5.83329 14.7917 5.83329L15.625 5.83329C15.9702 5.83329 16.25 5.55347 16.25 5.20829L16.25 4.30753L14.2409 3.07115C14.0765 2.97 13.8881 2.91663 13.6955 2.91663L11.0409 2.91664C10.6963 2.91664 10.4167 3.19598 10.4167 3.54164L10.4167 5.40138C10.4274 5.59203 10.4934 5.75587 10.5876 5.86302C10.6719 5.95868 10.8049 6.04163 11.0417 6.04163C11.2807 6.04163 11.4189 5.95718 11.5048 5.85913C11.6005 5.74968 11.6667 5.57985 11.6667 5.37496C11.6667 5.02978 11.9465 4.74996 12.2917 4.74996C12.6369 4.74996 12.9167 5.02978 12.9167 5.37496C12.9167 5.83673 12.7689 6.31273 12.4453 6.68245C12.1117 7.06358 11.6249 7.29163 11.0417 7.29163C10.7817 7.29163 10.5428 7.24634 10.3288 7.1633C10.2974 7.43992 10.2549 7.73318 10.1972 8.03439C9.97919 9.17279 9.52994 10.5076 8.56994 11.4806C7.86626 12.1938 7.48025 13.2969 7.27949 14.298C7.1814 14.7871 7.13214 15.228 7.10754 15.5461C7.09527 15.7048 7.08921 15.8318 7.08624 15.9177C7.08474 15.9607 7.08402 15.9933 7.08368 16.0144L7.08339 16.0371L7.08335 16.0416C7.08335 16.0485 7.08321 16.0562 7.08299 16.063L6.45835 16.0416Z" />
</svg>
