<svg width="22" height="22" viewBox="0 0 22 22" fill="none" xmlns="http://www.w3.org/2000/svg">
<path d="M8.09009 19.2169V16.4056C8.09007 15.6933 8.66936 15.1145 9.3869 15.11H12.0216C12.7423 15.11 13.3266 15.6901 13.3266 16.4056V19.2088C13.3266 19.8267 13.8287 20.3288 14.451 20.3333H16.2485C17.088 20.3355 17.8939 20.0059 18.4882 19.4173C19.0826 18.8287 19.4167 18.0295 19.4167 17.1961V9.21036C19.4167 8.53711 19.1161 7.89849 18.5959 7.46654L12.4894 2.61808C11.422 1.77003 9.89742 1.79742 8.86161 2.68327L2.88643 7.46654C2.34168 7.88575 2.01609 8.52627 2 9.21036V17.1879C2 18.9251 3.41843 20.3333 5.16816 20.3333H6.9246C7.22424 20.3355 7.51236 20.2188 7.72502 20.0092C7.93767 19.7996 8.05726 19.5144 8.05726 19.2169H8.09009Z" />
</svg>
