<svg width="25" height="24" viewBox="0 0 25 24" fill="none" xmlns="http://www.w3.org/2000/svg">
<path d="M11.9687 6.93002L12.4996 7.46091L13.0299 6.92942L13.85 6.1075C13.8501 6.10745 13.8501 6.1074 13.8502 6.10735C15.6602 4.2975 18.5901 4.29755 20.4001 6.10749C22.2054 7.91285 22.2045 10.8323 20.4006 12.6468C20.4004 12.647 20.4002 12.6472 20.4 12.6474L12.5002 20.5426L12.5001 20.5428H12.5L4.60464 12.6475C4.60463 12.6475 4.60463 12.6475 4.60463 12.6475C2.79845 10.8413 2.79846 7.91292 4.60463 6.10676L4.60463 6.10676C6.4108 4.30058 9.3392 4.30058 11.1454 6.10676L11.1454 6.10677L11.9687 6.93002Z"  stroke-width="1.5"/>
</svg>
