<svg width="25" height="25" viewBox="0 0 25 25" fill="none" xmlns="http://www.w3.org/2000/svg">
<path d="M9.91659 5.20833V5.70833H10.4166H14.5833H15.0833V5.20833C15.0833 3.7816 13.9267 2.625 12.4999 2.625C11.0731 2.625 9.91659 3.7816 9.91659 5.20833ZM8.85409 5.70833H9.35409V5.20833C9.35409 3.47093 10.7625 2.0625 12.4999 2.0625C14.2373 2.0625 15.6458 3.47093 15.6458 5.20833V5.70833H16.1458H22.1353C22.2907 5.70833 22.4166 5.83426 22.4166 5.98958C22.4166 6.14491 22.2907 6.27083 22.1353 6.27083H20.7613H20.3073L20.2636 6.72267L19.0428 19.3385C18.8738 21.0845 17.4065 22.4167 15.6523 22.4167H9.34751C7.59339 22.4167 6.12607 21.0845 5.9571 19.3385L4.73622 6.72267L4.69249 6.27083H4.23854H2.8645C2.70918 6.27083 2.58325 6.14491 2.58325 5.98958C2.58325 5.83426 2.70918 5.70833 2.8645 5.70833H8.85409ZM11.4374 10.1562C11.4374 9.44863 10.8638 8.875 10.1562 8.875C9.44856 8.875 8.87492 9.44864 8.87492 10.1562V17.9688C8.87492 18.6763 9.44855 19.25 10.1562 19.25C10.8638 19.25 11.4374 18.6763 11.4374 17.9688V10.1562ZM14.8437 8.875C14.1361 8.875 13.5624 9.44863 13.5624 10.1562V17.9688C13.5624 18.6763 14.1361 19.25 14.8437 19.25C15.5513 19.25 16.1249 18.6763 16.1249 17.9688V10.1562C16.1249 9.44863 15.5513 8.875 14.8437 8.875Z" stroke="#212121"/>
</svg>
