<svg width="22" height="22" viewBox="0 0 22 22" fill="none" xmlns="http://www.w3.org/2000/svg">
<path d="M15.4875 12.2856C16.555 12.2856 17.4202 13.1625 17.4202 14.2443V15.0442C17.4202 15.5437 17.2662 16.0306 16.9797 16.4369C15.6511 18.321 13.4818 19.2544 10.5424 19.2544C7.60241 19.2544 5.43417 18.3206 4.10883 16.4355C3.82354 16.0297 3.67023 15.5438 3.67023 15.0456V14.2443C3.67023 13.1625 4.53552 12.2856 5.60291 12.2856H15.4875ZM10.5424 1.83777C12.9156 1.83777 14.8394 3.78755 14.8394 6.19271C14.8394 8.59789 12.9156 10.5477 10.5424 10.5477C8.16922 10.5477 6.24538 8.59789 6.24538 6.19271C6.24538 3.78755 8.16922 1.83777 10.5424 1.83777Z" />
</svg>
