<svg width="20" height="20" viewBox="0 0 20 20" fill="none" xmlns="http://www.w3.org/2000/svg">
<path d="M7.98428 8.54879C8.04803 8.53582 8.10004 8.59991 8.07422 8.65962L6.28298 12.8019C6.24296 12.9087 6.18007 12.993 6.09431 13.0549C6.01426 13.1111 5.92564 13.1392 5.82844 13.1392C5.67407 13.1392 5.55972 13.097 5.4854 13.0127C5.41107 12.9284 5.37391 12.8244 5.37391 12.7007C5.37391 12.6501 5.38248 12.5967 5.39963 12.5405L7.53511 7.49767C7.58085 7.38523 7.64946 7.29809 7.74094 7.23625C7.83814 7.17441 7.94105 7.14912 8.04968 7.16036C8.1526 7.16036 8.24693 7.19128 8.3327 7.25312C8.42418 7.30934 8.48993 7.39086 8.52995 7.49767L10.6397 12.4393C10.6683 12.5124 10.6826 12.5798 10.6826 12.6417C10.6826 12.7935 10.6311 12.9143 10.5282 13.0043C10.431 13.0942 10.3224 13.1392 10.2023 13.1392C10.0994 13.1392 10.0051 13.1083 9.91929 13.0464C9.83925 12.9846 9.77636 12.9003 9.73062 12.7935L7.92655 8.65987C7.90606 8.61291 7.93407 8.55901 7.98428 8.54879V8.54879ZM7.32389 11.7731C6.96575 11.7731 6.7312 11.3982 6.88785 11.0761V11.0761C6.96902 10.9092 7.13832 10.8033 7.32389 10.8033H8.9259C9.16269 10.8033 9.36485 10.9743 9.40409 11.2079V11.2079C9.45378 11.5036 9.22579 11.7731 8.9259 11.7731H7.32389Z" />
<path d="M12.4379 12.5826C12.4379 12.7288 12.3864 12.8525 12.2835 12.9537C12.1863 13.0493 12.0634 13.097 11.9147 13.097C11.7718 13.097 11.6517 13.0493 11.5545 12.9537C11.4573 12.8525 11.4087 12.7288 11.4087 12.5826V7.37118C11.4087 7.22501 11.4573 7.10414 11.5545 7.00857C11.6574 6.90738 11.7832 6.85678 11.9319 6.85678C12.0805 6.85678 12.2006 6.90738 12.2921 7.00857C12.3893 7.10414 12.4379 7.22501 12.4379 7.37118V12.5826Z" />
<path d="M14.7494 12.5826C14.7494 12.7288 14.698 12.8525 14.5951 12.9537C14.4979 13.0493 14.3749 13.097 14.2263 13.097C14.0834 13.097 13.9633 13.0493 13.8661 12.9537C13.7689 12.8525 13.7203 12.7288 13.7203 12.5826V7.37118C13.7203 7.22501 13.7689 7.10414 13.8661 7.00857C13.969 6.90738 14.0948 6.85678 14.2434 6.85678C14.3921 6.85678 14.5122 6.90738 14.6036 7.00857C14.7008 7.10414 14.7494 7.22501 14.7494 7.37118V12.5826Z" />
<path d="M7.86096 2.92149C7.86096 3.14193 7.71582 3.33475 7.50831 3.40913C4.71192 4.41143 2.71524 7.04922 2.71524 10.1456C2.71524 14.1043 5.97898 17.3134 10.005 17.3134C13.7241 17.3134 16.7927 14.575 17.239 11.0369C17.2721 10.7742 17.4891 10.5672 17.7538 10.5672H18.4756C18.7611 10.5672 18.99 10.8065 18.9594 11.0903C18.4798 15.5363 14.6538 19 10.005 19C5.03168 19 1 15.0357 1 10.1456C1 6.20038 3.62406 2.85783 7.24965 1.71331C7.55802 1.61597 7.86096 1.85458 7.86096 2.17795L7.86096 2.92149Z" />
<path d="M11.3831 2.12123C11.7207 2.31285 11.7207 2.79925 11.3831 2.99087L8.39342 4.68813C8.0601 4.87735 7.64658 4.6366 7.64658 4.25331L7.64658 0.8588C7.64658 0.475514 8.0601 0.234756 8.39342 0.423981L11.3831 2.12123Z" />
</svg>
