<svg width="19" height="19" viewBox="0 0 19 19" fill="none" xmlns="http://www.w3.org/2000/svg">
<path d="M11.5016 0.264762L11.4227 0.19452C11.0676 -0.0864557 10.5502 -0.0630357 10.2221 0.264762L10.1518 0.343606C9.87059 0.698424 9.89402 1.21535 10.2221 1.54315L11.3973 2.7164L6.33262 2.71658L6.11491 2.72025C2.71831 2.83489 0 5.62207 0 9.04359C0 10.3505 0.396584 11.5648 1.07543 12.57C1.23974 12.7974 1.50733 12.9454 1.80952 12.9454C2.30921 12.9454 2.71429 12.5407 2.71429 12.0414C2.71429 11.8459 2.65215 11.6648 2.54713 11.5179L2.42483 11.3206C2.03368 10.652 1.80952 9.87392 1.80952 9.04359C1.80952 6.54776 3.83458 4.5245 6.33262 4.5245L11.3955 4.52431L10.2221 5.69792L10.1518 5.77677C9.87059 6.13159 9.89402 6.64852 10.2221 6.97631C10.5754 7.32929 11.1483 7.32929 11.5016 6.97631L14.2206 4.25974L14.2909 4.18089C14.5721 3.82607 14.5487 3.30914 14.2206 2.98135L11.5016 0.264762ZM16.9973 5.48549C16.8316 5.27506 16.5744 5.13992 16.2857 5.13992C15.786 5.13992 15.381 5.54463 15.381 6.04388C15.381 6.23219 15.4386 6.40706 15.5363 6.55135C15.9305 7.14598 16.1876 7.83921 16.2628 8.58605C16.9316 8.86159 17.5385 9.25689 18.0568 9.74519C18.0822 9.51479 18.0952 9.28077 18.0952 9.04359C18.0952 7.72297 17.6903 6.49679 16.9976 5.48235L16.9973 5.48549ZM6.70881 13.5621L8.16077 13.5623C8.14892 13.7148 8.14286 13.8691 8.14286 14.0247C8.14286 14.4877 8.19633 14.9381 8.29757 15.3702L6.69976 15.37L7.8793 16.5487L7.9496 16.6275C8.2308 16.9824 8.20737 17.4993 7.8793 17.8271C7.55313 18.1529 7.03993 18.178 6.68499 17.9023L6.59976 17.8271L3.88076 15.1105L3.81046 15.0317C3.55267 14.7064 3.55087 14.245 3.80508 13.9178L3.88076 13.8321L6.59976 11.1156L6.67867 11.0453C7.00421 10.7877 7.4661 10.7859 7.79353 11.0399L7.8793 11.1156L7.9496 11.1944C8.20737 11.5196 8.20918 11.9811 7.95494 12.3083L7.8793 12.3939L6.70881 13.5621ZM19 14.0247C19 16.7725 16.7721 19 14.0238 19C11.2755 19 9.04762 16.7725 9.04762 14.0247C9.04762 11.2769 11.2755 9.04947 14.0238 9.04947C16.7721 9.04947 19 11.2769 19 14.0247ZM14.5801 10.8708C14.3759 10.8226 14.1654 10.9211 14.0716 11.1087C14.02 11.2118 13.8211 11.5177 13.5171 11.8574C13.2148 12.1952 12.8445 12.5256 12.4644 12.7156C12.2409 12.8273 12.1503 13.099 12.2621 13.3224C12.3738 13.5458 12.6455 13.6364 12.869 13.5247C13.3116 13.3034 13.7075 12.9674 14.0238 12.6406V16.7385C14.0238 16.9883 14.2264 17.1908 14.4762 17.1908C14.726 17.1908 14.9286 16.9883 14.9286 16.7385V11.311C14.9286 11.1012 14.7844 10.919 14.5801 10.8708Z" fill="#F0F3F3"/>
</svg>
