<svg width="20" height="20" viewBox="0 0 20 20" fill="none" xmlns="http://www.w3.org/2000/svg">
<path d="M12.4411 1.26342L12.3626 1.19353C12.0093 0.913983 11.4946 0.937284 11.1683 1.26342L11.0984 1.34186C10.8186 1.69488 10.842 2.20918 11.1683 2.53532L12.3373 3.70261L7.29929 3.70279L7.08273 3.70645C3.704 3.8205 1 6.59353 1 9.99768C1 11.2979 1.3945 12.5061 2.06977 13.5062C2.23322 13.7324 2.4994 13.8797 2.8 13.8797C3.29705 13.8797 3.7 13.477 3.7 12.9803C3.7 12.7858 3.63819 12.6056 3.53372 12.4595L3.41207 12.2632C3.02297 11.598 2.8 10.8238 2.8 9.99768C2.8 7.51452 4.8144 5.50153 7.29929 5.50153L12.3355 5.50135L11.1683 6.669L11.0984 6.74744C10.8186 7.10047 10.842 7.61477 11.1683 7.94091C11.5197 8.29209 12.0896 8.29209 12.4411 7.94091L15.1458 5.23811L15.2157 5.15967C15.4954 4.80665 15.4721 4.29235 15.1458 3.96621L12.4411 1.26342ZM17.9079 6.45764C17.7431 6.24828 17.4872 6.11382 17.2 6.11382C16.7029 6.11382 16.3 6.51648 16.3 7.0132C16.3 7.20056 16.3573 7.37454 16.4545 7.5181C16.9257 8.22891 17.2 9.0813 17.2 9.99768C17.2 12.4808 15.1856 14.4938 12.7007 14.4938L7.6735 14.4933L8.83783 13.331L8.91307 13.2458C9.16597 12.9203 9.16417 12.4612 8.90776 12.1376L8.83783 12.0591L8.75251 11.9839C8.4268 11.7312 7.96735 11.733 7.64352 11.9892L7.56502 12.0591L4.86033 14.7619L4.78506 14.8472C4.53218 15.1727 4.53397 15.6318 4.7904 15.9554L4.86033 16.0338L7.56502 18.7366L7.6498 18.8114C8.00287 19.0857 8.51338 19.0608 8.83783 18.7366C9.16417 18.4104 9.18748 17.8962 8.90776 17.5431L8.83783 17.4647L7.6645 16.292L12.7007 16.2926L12.9173 16.2889C16.296 16.1748 19 13.4018 19 9.99768C19 8.68377 18.5972 7.46381 17.9081 6.45452L17.9079 6.45764Z" />
</svg>
