<svg width="20" height="20" viewBox="0 0 20 20" fill="none" xmlns="http://www.w3.org/2000/svg">
<path d="M2.45161 1.19187L2.5364 1.26668L18.7364 17.4553C19.0878 17.8065 19.0878 18.376 18.7364 18.7272C18.4119 19.0514 17.9015 19.0763 17.5484 18.802L17.4636 18.7272L14.7024 15.9681C14.1634 16.1484 13.5919 16.258 12.9989 16.2856L12.7007 16.2925L7.6645 16.292L8.83783 17.4647L8.90776 17.5431C9.18748 17.8962 9.16417 18.4104 8.83783 18.7365C8.51338 19.0608 8.00287 19.0858 7.6498 18.8114L7.56502 18.7365L4.86033 16.0338L4.7904 15.9553C4.53397 15.6317 4.53218 15.1726 4.78506 14.8471L4.86033 14.7619L7.56502 12.0591L7.64352 11.9892C7.96735 11.733 8.4268 11.7312 8.75251 11.9839L8.83783 12.0591L8.90776 12.1375C9.16417 12.4611 9.16597 12.9202 8.91307 13.2457L8.83783 13.331L7.6735 14.4932L12.7007 14.4938C12.8691 14.4938 13.0353 14.4845 13.199 14.4665L4.91321 6.18515C3.64397 6.98008 2.8 8.39039 2.8 9.99765C2.8 10.8238 3.02297 11.5979 3.41207 12.2632L3.53372 12.4594C3.63819 12.6056 3.7 12.7858 3.7 12.9803C3.7 13.477 3.29705 13.8797 2.8 13.8797C2.4994 13.8797 2.23322 13.7324 2.06977 13.5061C1.3945 12.5061 1 11.2979 1 9.99765C1 7.89487 2.03177 6.0329 3.61701 4.88971L1.2636 2.53858C0.912133 2.18736 0.912133 1.61791 1.2636 1.26668C1.58804 0.94247 2.09855 0.917531 2.45161 1.19187ZM17.2 6.11381C17.4872 6.11381 17.7431 6.24827 17.9079 6.45762L17.956 6.52507L17.9712 6.54929C18.6217 7.5394 19 8.72441 19 9.99765C19 11.7758 18.2623 13.3817 17.0759 14.5264L15.8023 13.2548C16.6633 12.4357 17.2 11.2793 17.2 9.99765C17.2 9.16492 16.9735 8.38508 16.5785 7.71625L16.4552 7.519C16.3576 7.37527 16.3 7.20094 16.3 7.01318C16.3 6.51648 16.7029 6.11381 17.2 6.11381ZM12.3626 1.19353L12.4411 1.26342L15.1458 3.9662C15.4721 4.29234 15.4954 4.80664 15.2157 5.15965L15.1458 5.2381L12.4411 7.94089C12.0896 8.29208 11.5197 8.29208 11.1683 7.94089C10.842 7.61475 10.8186 7.10045 11.0984 6.74744L11.1683 6.66899L12.3355 5.50133H8.0434L6.32021 3.77837C6.56983 3.73943 6.8243 3.71516 7.08273 3.70644L7.29929 3.70279L12.3373 3.7026L11.1683 2.53532C10.842 2.20918 10.8186 1.69488 11.0984 1.34186L11.1683 1.26342C11.4946 0.937281 12.0093 0.913987 12.3626 1.19353Z" fill="#F0F3F3"/>
</svg>
