<svg width="16" height="16" viewBox="0 0 16 16" fill="none" xmlns="http://www.w3.org/2000/svg">
<path d="M2.60665 11.4533C2.47998 11.4533 2.35331 11.4066 2.25331 11.3066C1.33998 10.3866 0.833313 9.17329 0.833313 7.88662C0.833313 5.21329 2.99998 3.03995 5.66665 3.03995L9.71331 3.05329L8.98665 2.35995C8.78665 2.16662 8.77998 1.85329 8.97331 1.65329C9.16665 1.45329 9.47998 1.44662 9.67998 1.63995L11.3066 3.19995C11.4533 3.33995 11.5 3.55995 11.4266 3.74662C11.3533 3.93329 11.1666 4.05995 10.96 4.05995L5.66665 4.04662C3.55331 4.04662 1.83331 5.77329 1.83331 7.89329C1.83331 8.91329 2.23331 9.87995 2.95998 10.6066C3.15331 10.8 3.15331 11.12 2.95998 11.3133C2.85998 11.4066 2.73331 11.4533 2.60665 11.4533Z" />
<path d="M6.66666 14.5C6.53999 14.5 6.41999 14.4533 6.31999 14.36L4.69333 12.8C4.54666 12.66 4.49999 12.44 4.57333 12.2533C4.65333 12.0666 4.83999 11.9666 5.03999 11.94L10.34 11.9533C12.4533 11.9533 14.1733 10.2266 14.1733 8.10663C14.1733 7.08663 13.7733 6.11996 13.0467 5.39329C12.8533 5.19996 12.8533 4.87996 13.0467 4.68663C13.24 4.49329 13.56 4.49329 13.7533 4.68663C14.6667 5.60663 15.1733 6.81996 15.1733 8.10663C15.1733 10.78 13.0067 12.9533 10.34 12.9533L6.29333 12.94L7.01999 13.6333C7.21999 13.8266 7.22666 14.14 7.03333 14.34C6.92666 14.4466 6.79999 14.5 6.66666 14.5Z" />
</svg>
