<svg width="16" height="16" viewBox="0 0 16 16" fill="none" xmlns="http://www.w3.org/2000/svg">
<path d="M14.5 11.9867C14.5 11.9734 14.4933 11.96 14.4933 11.9467C14.4866 11.8934 14.48 11.84 14.46 11.7934C14.4333 11.7334 14.4 11.6867 14.36 11.64C14.36 11.64 14.36 11.6334 14.3533 11.6334C14.3066 11.5867 14.2533 11.5534 14.1933 11.5267C14.1333 11.5 14.0666 11.4867 14 11.4867L10.8866 11.5C10.8866 11.5 10.8866 11.5 10.88 11.5C10.48 11.5 10.0933 11.3134 9.8533 10.9934L9.03997 9.94672C8.8733 9.72672 8.55997 9.68672 8.33997 9.86005C8.11997 10.0334 8.07996 10.34 8.2533 10.56L9.06663 11.6067C9.49997 12.1667 10.18 12.5 10.8866 12.5H10.8933L12.7933 12.4934L12.32 12.9667C12.1266 13.16 12.1266 13.48 12.32 13.6734C12.42 13.7734 12.5466 13.82 12.6733 13.82C12.8 13.82 12.9266 13.7734 13.0266 13.6734L14.36 12.34C14.4066 12.2934 14.44 12.24 14.4666 12.18C14.4866 12.1134 14.5 12.0467 14.5 11.9867Z" />
<path d="M5.61333 4.46005C5.18 3.86005 4.48667 3.50671 3.74667 3.50671C3.74 3.50671 3.74 3.50671 3.73333 3.50671L2 3.51338C1.72667 3.51338 1.5 3.74005 1.5 4.01338C1.5 4.28671 1.72667 4.51338 2 4.51338L3.74 4.50671H3.74667C4.16667 4.50671 4.56 4.70671 4.8 5.04671L5.52 6.04671C5.62 6.18005 5.77333 6.25338 5.92667 6.25338C6.02667 6.25338 6.13333 6.22005 6.22 6.16005C6.44667 5.99338 6.49333 5.68005 6.33333 5.46005L5.61333 4.46005Z" />
<path d="M14.4933 4.05335C14.4933 4.04002 14.5 4.02669 14.5 4.02002C14.5 3.95335 14.4867 3.88669 14.46 3.82669C14.4333 3.76669 14.4 3.71335 14.3533 3.66669L13.02 2.33335C12.8267 2.14002 12.5067 2.14002 12.3133 2.33335C12.12 2.52669 12.12 2.84669 12.3133 3.04002L12.7867 3.51335L10.9667 3.50669C10.96 3.50669 10.96 3.50669 10.9533 3.50669C10.1867 3.50669 9.46667 3.88669 9.04 4.53335L4.78 10.92C4.54 11.28 4.13333 11.5 3.7 11.5H3.69333L2 11.4867C1.72667 11.4867 1.5 11.7067 1.5 11.9867C1.5 12.26 1.72 12.4867 2 12.4867L3.7 12.4934C3.70667 12.4934 3.70667 12.4934 3.71333 12.4934C4.48667 12.4934 5.2 12.1134 5.62667 11.4667L9.88667 5.08002C10.1267 4.72002 10.5333 4.50002 10.9667 4.50002H10.9733L14 4.51335C14.0667 4.51335 14.1267 4.50002 14.1933 4.47335C14.2533 4.44669 14.3067 4.41335 14.3533 4.36669C14.3533 4.36669 14.3533 4.36002 14.36 4.36002C14.4 4.31335 14.44 4.26669 14.46 4.20669C14.48 4.16002 14.4867 4.10669 14.4933 4.05335Z" />
</svg>
