<svg width="22" height="22" viewBox="0 0 22 22" fill="none" xmlns="http://www.w3.org/2000/svg">
<path d="M11.6881 1.83337C10.9224 1.83337 10.1861 2.12821 9.63195 2.6567L3.3881 8.61183C2.54858 9.41256 2.53437 10.7479 3.35667 11.5663L9.09189 17.2742C9.89329 18.0718 11.1874 18.0754 11.9934 17.2824L18.36 11.0176C18.9291 10.4576 19.2496 9.6926 19.2496 8.89413V4.35421C19.2496 2.96199 18.121 1.83337 16.7288 1.83337H11.6881ZM14.8958 7.10421C14.2629 7.10421 13.75 6.5912 13.75 5.95837C13.75 5.32554 14.2629 4.81254 14.8958 4.81254C15.5287 4.81254 16.0416 5.32554 16.0416 5.95837C16.0416 6.5912 15.5287 7.10421 14.8958 7.10421ZM17.6511 13.0015L19.0033 11.671C19.0446 11.6303 19.085 11.5888 19.1242 11.5466C19.4084 12.4248 19.1995 13.4305 18.4907 14.1252L13.6018 18.9179C11.903 20.5832 9.18205 20.5769 7.4911 18.9036L3.49773 14.9521C2.7966 14.2583 2.58841 13.2557 2.87368 12.3784L4.36674 13.8644C4.39667 13.9028 4.42938 13.9396 4.46486 13.9747L6.67518 16.1619L8.44561 17.9238C9.41296 18.8866 10.8772 19.0486 12.0117 18.4073C12.2358 18.2815 12.4471 18.1244 12.6393 17.936L17.5282 13.1433C17.5737 13.0987 17.6146 13.0513 17.6511 13.0015Z" />
</svg>
