<svg width="18" height="19" viewBox="0 0 18 19" fill="none" xmlns="http://www.w3.org/2000/svg">
<path d="M13.5 13.1077C13.38 13.1077 13.2675 13.0702 13.1625 12.9952C12.915 12.8077 12.8625 12.4552 13.05 12.2077C14.2275 10.6402 14.2275 8.45025 13.05 6.88275C12.8625 6.63525 12.915 6.28275 13.1625 6.09525C13.41 5.90775 13.7625 5.96025 13.95 6.20775C15.42 8.17275 15.42 10.9177 13.95 12.8827C13.8375 13.0327 13.6725 13.1077 13.5 13.1077Z" fill="#F0F3F3"/>
<path d="M14.8725 14.9827C14.7525 14.9827 14.64 14.9452 14.535 14.8702C14.2875 14.6827 14.235 14.3302 14.4225 14.0827C16.425 11.4127 16.425 7.67775 14.4225 5.00775C14.235 4.76025 14.2875 4.40775 14.535 4.22025C14.7825 4.03275 15.135 4.08525 15.3225 4.33275C17.625 7.40025 17.625 11.6902 15.3225 14.7577C15.2175 14.9077 15.045 14.9827 14.8725 14.9827Z" fill="#F0F3F3"/>
<path d="M10.515 3.38033C9.675 2.91533 8.6025 3.03533 7.5075 3.71783L5.3175 5.09032C5.1675 5.18032 4.995 5.23282 4.8225 5.23282H4.125H3.75C1.935 5.23282 0.9375 6.23033 0.9375 8.04533V11.0453C0.9375 12.8603 1.935 13.8578 3.75 13.8578H4.125H4.8225C4.995 13.8578 5.1675 13.9103 5.3175 14.0003L7.5075 15.3728C8.1675 15.7853 8.8125 15.9878 9.4125 15.9878C9.8025 15.9878 10.1775 15.8978 10.515 15.7103C11.3475 15.2453 11.8125 14.2778 11.8125 12.9878V6.10283C11.8125 4.81283 11.3475 3.84533 10.515 3.38033Z" fill="#F0F3F3"/>
</svg>
