<svg width="21" height="21" viewBox="0 0 21 21" fill="none" xmlns="http://www.w3.org/2000/svg">
<g clip-path="url(#clip0_739_2071)">
<rect width="21" height="21" rx="10.5" fill="url(#paint0_linear_739_2071)"/>
<path d="M16.122 8.4C16.1354 8.50667 16.122 8.61333 16.082 8.72C16.0554 8.81333 16.022 8.90667 15.982 9C15.902 9 15.8354 9.00667 15.782 9.02C15.7287 9.04667 15.7087 9.09333 15.722 9.16C15.7487 9.22667 15.742 9.28667 15.702 9.34C15.6754 9.39333 15.6487 9.45333 15.622 9.52C15.5954 9.58667 15.5687 9.64 15.542 9.68C15.5287 9.77333 15.5487 9.84667 15.602 9.9C15.6687 9.95333 15.702 10.02 15.702 10.1C15.7154 10.1533 15.7087 10.2067 15.682 10.26C15.6687 10.3 15.6487 10.3467 15.622 10.4C15.5954 10.4533 15.562 10.5 15.522 10.54C15.4954 10.58 15.4687 10.6267 15.442 10.68C15.402 10.7467 15.3554 10.82 15.302 10.9C15.262 10.98 15.222 11.0533 15.182 11.12C15.1287 11.1733 15.062 11.2267 14.982 11.28C14.9154 11.3333 14.8487 11.3867 14.782 11.44C14.7554 11.48 14.7287 11.5267 14.702 11.58C14.6754 11.62 14.6487 11.6733 14.622 11.74C14.4087 11.9133 14.1954 12.0867 13.982 12.26C13.7687 12.4333 13.5487 12.5933 13.322 12.74C13.162 12.7933 12.9954 12.84 12.822 12.88C12.6487 12.9067 12.4754 12.9333 12.302 12.96C12.1687 12.9733 12.0354 12.9933 11.902 13.02C11.7687 13.0467 11.6287 13.08 11.482 13.12C11.402 13.1333 11.322 13.1467 11.242 13.16C11.162 13.16 11.0687 13.16 10.962 13.16C10.7887 13.1733 10.6154 13.1867 10.442 13.2C10.282 13.2 10.1287 13.2 9.98203 13.2C9.82203 13.2667 9.73536 13.3467 9.72203 13.44C9.7087 13.52 9.6887 13.6 9.66203 13.68C9.63536 13.76 9.6087 13.84 9.58203 13.92C9.58203 14.0933 9.5687 14.2733 9.54203 14.46C9.5287 14.6467 9.5287 14.8267 9.54203 15C9.54203 15.0667 9.53536 15.1133 9.52203 15.14C9.52203 15.22 9.51536 15.3067 9.50203 15.4C9.50203 15.48 9.50203 15.56 9.50203 15.64C9.50203 15.72 9.50203 15.8 9.50203 15.88C9.51536 15.9467 9.5287 16.0133 9.54203 16.08C9.58203 16.3333 9.5487 16.5867 9.44203 16.84C9.44203 16.9067 9.4287 16.9667 9.40203 17.02C9.36203 17.1267 9.2887 17.1667 9.18203 17.14C8.98203 17.0733 8.78203 17.0333 8.58203 17.02C8.39536 17.02 8.19536 17.0333 7.98203 17.06H7.72203C7.53536 17.1533 7.34203 17.2133 7.14203 17.24C6.94203 17.2667 6.73536 17.2867 6.52203 17.3C6.40203 17.3 6.3287 17.26 6.30203 17.18C6.30203 17.18 6.29536 17.1733 6.28203 17.16C6.28203 17.16 6.28203 17.1533 6.28203 17.14C6.25536 16.8067 6.22203 16.4667 6.18203 16.12C6.14203 15.7733 6.1287 15.4333 6.14203 15.1C6.14203 15.0333 6.13536 14.9667 6.12203 14.9C6.12203 14.8333 6.11536 14.7733 6.10203 14.72C6.07536 14.5733 6.05536 14.4267 6.04203 14.28C6.0287 14.12 6.01536 13.9667 6.00203 13.82C6.00203 13.7667 6.00203 13.7133 6.00203 13.66C6.00203 13.6067 5.9887 13.5533 5.96203 13.5C5.9087 13.3933 5.88203 13.28 5.88203 13.16C5.89536 13.04 5.90203 12.9333 5.90203 12.84C5.94203 12.7467 5.9687 12.6733 5.98203 12.62C5.99536 12.5533 6.0087 12.48 6.02203 12.4C5.98203 12.3467 5.96203 12.3 5.96203 12.26C5.97536 12.2067 5.9687 12.16 5.94203 12.12C5.94203 12.0933 5.93536 12.0733 5.92203 12.06C5.9087 12.0333 5.90203 12.0133 5.90203 12C5.8887 11.6667 5.87536 11.2867 5.86203 10.86C5.86203 10.4333 5.86203 10.0333 5.86203 9.66C5.87536 9.28667 5.8887 9.02 5.90203 8.86C5.9287 8.80667 5.95536 8.76 5.98203 8.72C6.02203 8.68 6.0487 8.64 6.06203 8.6C6.06203 8.56 6.0487 8.53333 6.02203 8.52C5.99536 8.49333 5.9687 8.47333 5.94203 8.46C5.9687 8.34 5.99536 8.22 6.02203 8.1C6.06203 7.98 6.09536 7.86 6.12203 7.74C6.1087 7.67333 6.09536 7.61333 6.08203 7.56C6.0687 7.50667 6.0487 7.45333 6.02203 7.4C6.06203 7.30667 6.10203 7.2 6.14203 7.08C6.1287 6.97333 6.11536 6.85333 6.10203 6.72C6.10203 6.58667 6.0887 6.44667 6.06203 6.3C6.0887 6.26 6.1087 6.20667 6.12203 6.14C6.13536 6.06 6.15536 5.98667 6.18203 5.92C6.2087 5.85333 6.2087 5.78667 6.18203 5.72C6.1687 5.65333 6.18203 5.59333 6.22203 5.54C6.30203 5.51333 6.3687 5.50667 6.42203 5.52C6.4487 5.53333 6.48203 5.55333 6.52203 5.58C6.56203 5.59333 6.59536 5.60667 6.62203 5.62H6.76203C6.92203 5.56667 7.08203 5.52 7.24203 5.48C7.41536 5.42667 7.57536 5.36667 7.72203 5.3C7.81536 5.24667 7.92203 5.23333 8.04203 5.26C8.12203 5.27333 8.19536 5.28667 8.26203 5.3C8.34203 5.3 8.41536 5.28667 8.48203 5.26C8.57536 5.24667 8.66203 5.24 8.74203 5.24C8.83536 5.22667 8.9287 5.22 9.02203 5.22C9.27536 5.22 9.5287 5.2 9.78203 5.16C10.0354 5.12 10.2887 5.07333 10.542 5.02C10.6487 4.98 10.762 4.96667 10.882 4.98C11.002 4.99333 11.1154 4.99333 11.222 4.98C11.3154 5.00667 11.4087 5.04 11.502 5.08C11.5954 5.10667 11.6887 5.13333 11.782 5.16C11.8754 5.18667 11.9687 5.21333 12.062 5.24C12.1554 5.25333 12.262 5.27333 12.382 5.3C12.582 5.24667 12.7954 5.22667 13.022 5.24C13.2487 5.24 13.4687 5.24667 13.682 5.26C13.802 5.27333 13.9154 5.3 14.022 5.34C14.142 5.38 14.2487 5.43333 14.342 5.5C14.4754 5.55333 14.622 5.64 14.782 5.76C14.8487 5.81333 14.9087 5.87333 14.962 5.94C15.0287 5.99333 15.0887 6.05333 15.142 6.12C15.1687 6.13333 15.1887 6.16 15.202 6.2C15.2154 6.22667 15.2287 6.25333 15.242 6.28C15.2687 6.37333 15.3154 6.44667 15.382 6.5C15.4487 6.55333 15.5087 6.61333 15.562 6.68C15.802 7.04 15.922 7.45333 15.922 7.92C15.9487 8 15.982 8.08667 16.022 8.18C16.062 8.26 16.0954 8.33333 16.122 8.4ZM12.902 8.68C12.8887 8.6 12.862 8.52 12.822 8.44C12.7954 8.36 12.7687 8.28 12.742 8.2C12.7287 8.16 12.7087 8.12667 12.682 8.1C12.6687 8.07333 12.6554 8.05333 12.642 8.04C12.6154 7.97333 12.562 7.95333 12.482 7.98C12.4554 8.00667 12.4287 8.02667 12.402 8.04C12.3754 8.05333 12.3487 8.07333 12.322 8.1C12.2554 8.11333 12.1887 8.12667 12.122 8.14C12.0687 8.14 12.0087 8.14667 11.942 8.16H11.702C11.662 8.13333 11.6154 8.10667 11.562 8.08C11.522 8.04 11.4687 8 11.402 7.96C11.3087 7.94667 11.202 7.94 11.082 7.94C10.9754 7.92667 10.8687 7.92667 10.762 7.94C10.5087 7.99333 10.3087 8.09333 10.162 8.24C10.082 8.21333 10.0154 8.2 9.96203 8.2C9.92203 8.17333 9.88203 8.16667 9.84203 8.18C9.80203 8.19333 9.76203 8.2 9.72203 8.2C9.64203 8.24 9.5687 8.28667 9.50203 8.34C9.43536 8.39333 9.38203 8.46667 9.34203 8.56C9.3287 8.61333 9.3087 8.67333 9.28203 8.74C9.2687 8.79333 9.26203 8.85333 9.26203 8.92C9.2487 9.05333 9.23536 9.19333 9.22203 9.34C9.22203 9.47333 9.21536 9.61333 9.20203 9.76C9.20203 9.84 9.19536 9.92667 9.18203 10.02C9.18203 10.1 9.1887 10.18 9.20203 10.26C9.20203 10.2733 9.2087 10.3 9.22203 10.34C9.23536 10.38 9.2487 10.4133 9.26203 10.44C9.4487 10.4133 9.62203 10.4 9.78203 10.4C9.94203 10.3867 10.0954 10.3933 10.242 10.42C10.3887 10.46 10.5354 10.4867 10.682 10.5C10.842 10.5133 10.9887 10.54 11.122 10.58C11.1887 10.5933 11.2687 10.5867 11.362 10.56C11.442 10.4933 11.5154 10.4267 11.582 10.36C11.662 10.2933 11.742 10.2267 11.822 10.16C11.8887 10.1467 11.9487 10.14 12.002 10.14C12.0687 10.1267 12.1287 10.1133 12.182 10.1C12.262 10.0333 12.342 9.96667 12.422 9.9C12.502 9.82 12.5754 9.74667 12.642 9.68C12.6687 9.58667 12.6887 9.5 12.702 9.42C12.7287 9.34 12.7487 9.25333 12.762 9.16C12.7887 9.08 12.8154 9.00667 12.842 8.94C12.882 8.86 12.902 8.77333 12.902 8.68Z" fill="white"/>
</g>
<defs>
<linearGradient id="paint0_linear_739_2071" x1="21" y1="2.60074e-07" x2="21.2234" y2="20.7814" gradientUnits="userSpaceOnUse">
<stop stop-color="#AADDFF"/>
<stop offset="1" stop-color="#FFD7D7"/>
</linearGradient>
<clipPath id="clip0_739_2071">
<rect width="21" height="21" rx="10.5" fill="white"/>
</clipPath>
</defs>
</svg>
